<svg xmlns="http://www.w3.org/2000/svg" xmlns:xlink="http://www.w3.org/1999/xlink" width="500" zoomAndPan="magnify" viewBox="0 0 375 374.999991" height="500" preserveAspectRatio="xMidYMid meet" version="1.0"><path fill="#ffffff" d="M 215.097656 188.125 C 216.300781 188.125 217.492188 188.625 218.339844 189.578125 C 219.761719 191.171875 219.8125 193.5625 218.460938 195.214844 C 208.132812 207.8125 202.339844 228.351562 204.050781 246.320312 C 204.921875 255.460938 206.515625 262.507812 209.070312 268.484375 C 211.308594 273.738281 214.4375 278.550781 217.753906 283.644531 C 220.085938 287.234375 222.5 290.949219 224.597656 294.851562 C 235.839844 315.820312 237.210938 342.695312 228.679688 364.433594 C 241.988281 360.5625 254.964844 353.046875 265.925781 342.75 C 277.953125 331.445312 287.902344 316.824219 295.476562 299.277344 C 314.207031 255.929688 312.738281 202.597656 292.355469 159.699219 C 290.351562 173.648438 287.101562 187.789062 282.78125 201.261719 C 282.15625 203.214844 280.246094 204.457031 278.210938 204.253906 C 276.175781 204.050781 274.558594 202.445312 274.335938 200.410156 C 269.386719 155.222656 256.625 111.660156 236.398438 70.945312 C 228.304688 54.660156 221.015625 43.042969 212.761719 33.28125 C 206.144531 25.460938 197.410156 18.65625 187.15625 13.289062 C 193.304688 31.46875 193.625 53.59375 188.097656 79.257812 C 179.648438 118.472656 160.96875 156.382812 132.574219 191.925781 C 131.519531 193.253906 129.785156 193.839844 128.140625 193.433594 C 126.496094 193.023438 125.238281 191.695312 124.921875 190.03125 C 120.847656 168.539062 110.191406 149.097656 93.894531 133.242188 C 94.550781 151.226562 89.746094 168.726562 84.675781 183.933594 C 83.175781 188.433594 81.574219 192.972656 80.023438 197.367188 C 74.945312 211.742188 69.695312 226.605469 67.574219 241.695312 C 63.957031 267.460938 69.757812 294.914062 83.484375 317.015625 C 95.3125 336.0625 113.308594 351.589844 133.863281 360.75 C 126.875 344.09375 123.9375 324.886719 125.332031 304.53125 C 126.734375 284.035156 132.394531 262.5625 142.636719 238.886719 C 143.472656 236.960938 145.5625 235.902344 147.609375 236.386719 C 149.65625 236.863281 151.0625 238.742188 150.953125 240.839844 C 150.457031 250.164062 151.84375 260.234375 154.816406 270.015625 C 155.277344 266.1875 155.996094 262.617188 156.78125 259.496094 C 159.5 248.671875 164.773438 237.921875 172.902344 226.628906 C 183.742188 211.574219 197.148438 198.851562 212.753906 188.816406 C 213.476562 188.351562 214.292969 188.125 215.097656 188.125 Z M 220.976562 375 C 219.589844 375 218.265625 374.332031 217.445312 373.175781 C 216.480469 371.816406 216.378906 370.023438 217.183594 368.566406 C 228.4375 348.179688 228.34375 320.203125 216.953125 298.957031 C 215.027344 295.367188 212.816406 291.972656 210.476562 288.378906 C 207.105469 283.195312 203.625 277.839844 201.089844 271.890625 C 198.175781 265.066406 196.371094 257.203125 195.414062 247.144531 C 194.203125 234.445312 196.378906 220.558594 201.089844 208.464844 C 193.183594 215.402344 186.027344 223.246094 179.945312 231.699219 C 172.46875 242.085938 167.644531 251.871094 165.199219 261.609375 C 162.984375 270.414062 161.296875 283.1875 165.816406 294.042969 C 166.683594 296.125 165.8125 298.519531 163.8125 299.558594 C 161.816406 300.601562 159.355469 299.9375 158.148438 298.035156 C 150.933594 286.660156 145.894531 273.40625 143.59375 260.277344 C 138.125 276.089844 134.960938 290.886719 133.988281 305.121094 C 132.414062 328.070312 136.699219 349.355469 146.375 366.667969 C 147.25 368.226562 147.074219 370.167969 145.933594 371.542969 C 144.792969 372.925781 142.921875 373.460938 141.226562 372.902344 C 114.625 364.09375 90.894531 345.394531 76.113281 321.597656 C 61.332031 297.796875 55.085938 268.234375 58.984375 240.488281 C 61.222656 224.539062 66.621094 209.257812 71.839844 194.476562 C 73.378906 190.121094 74.96875 185.617188 76.445312 181.191406 C 82.234375 163.8125 87.679688 143.355469 84.160156 123.339844 C 83.847656 121.554688 84.675781 119.761719 86.234375 118.847656 C 87.800781 117.929688 89.765625 118.078125 91.171875 119.21875 C 111.160156 135.464844 124.917969 156.117188 131.34375 179.363281 C 155.785156 146.96875 172.011719 112.714844 179.613281 77.429688 C 185.746094 48.980469 184.144531 24.515625 174.980469 6.683594 C 174.15625 5.070312 174.414062 3.117188 175.632812 1.78125 C 176.851562 0.441406 178.773438 0 180.453125 0.667969 C 196.347656 7.019531 209.808594 16.359375 219.386719 27.683594 C 228.109375 37.992188 235.753906 50.148438 244.164062 67.085938 C 261.675781 102.332031 273.714844 139.667969 280.070312 178.328125 C 282.617188 167.195312 284.390625 155.914062 285.308594 144.964844 C 285.46875 143.085938 286.824219 141.519531 288.664062 141.097656 C 290.5 140.675781 292.40625 141.496094 293.371094 143.121094 C 321.097656 190.0625 325.050781 252.707031 303.445312 302.71875 C 295.390625 321.359375 284.769531 336.953125 271.867188 349.070312 C 257.160156 362.882812 239.820312 371.828125 221.714844 374.941406 C 221.46875 374.980469 221.226562 375 220.976562 375 " fill-opacity="1" fill-rule="nonzero"/></svg>