<svg xmlns="http://www.w3.org/2000/svg" xmlns:xlink="http://www.w3.org/1999/xlink" width="900" zoomAndPan="magnify" viewBox="0 0 675 675.000002" height="900" preserveAspectRatio="xMidYMid meet" version="1.0"><defs><clipPath id="c03e0ad3e8"><path d="M 0.5 0 L 213 0 L 213 277 L 0.5 277 Z M 0.5 0 " clip-rule="nonzero"/></clipPath><clipPath id="d4f5e4beae"><path d="M 0.5 494 L 570 494 L 570 591 L 0.5 591 Z M 0.5 494 " clip-rule="nonzero"/></clipPath></defs><path fill="#ffffff" d="M 402.199219 64.46875 C 382.597656 64.46875 365.730469 77.871094 361.265625 97.050781 C 360.632812 99.574219 358.582031 101.570312 356.0625 102.042969 C 339.613281 105.144531 327.683594 119.492188 327.683594 136.203125 C 327.683594 141.246094 328.890625 146.34375 331.257812 151.230469 C 332.359375 153.542969 332.046875 156.277344 330.417969 158.273438 C 324.164062 165.894531 320.90625 174.933594 320.90625 184.390625 C 320.90625 206.148438 337.300781 223.910156 359.109375 225.644531 C 361.632812 225.855469 363.839844 227.484375 364.730469 229.796875 C 371.089844 246.140625 386.488281 256.703125 403.933594 256.703125 C 427.214844 256.703125 446.132812 237.730469 446.132812 214.503906 C 446.027344 214.1875 445.976562 213.664062 445.976562 213.191406 C 445.871094 210.089844 447.972656 207.355469 450.96875 206.621094 C 470.148438 201.890625 483.550781 184.863281 483.550781 165.105469 C 483.550781 144.609375 468.941406 126.953125 448.761719 123.117188 C 447.027344 122.800781 445.503906 121.804688 444.503906 120.332031 C 443.507812 118.859375 443.191406 117.074219 443.507812 115.339844 C 444.085938 112.449219 444.398438 109.558594 444.398438 106.667969 C 444.398438 83.441406 425.480469 64.46875 402.199219 64.46875 Z M 403.933594 269.894531 C 382.390625 269.894531 363.207031 257.597656 354.0625 238.308594 C 327.367188 234.261719 307.714844 211.71875 307.714844 184.390625 C 307.714844 173.199219 311.128906 162.476562 317.75 153.175781 C 315.597656 147.660156 314.492188 141.929688 314.492188 136.203125 C 314.492188 114.550781 328.996094 95.789062 349.492188 90.011719 C 356.691406 67.042969 377.816406 51.332031 402.199219 51.332031 C 432.785156 51.332031 457.589844 76.136719 457.589844 106.667969 C 457.589844 108.351562 457.539062 110.03125 457.378906 111.714844 C 480.503906 118.859375 496.742188 140.40625 496.742188 165.105469 C 496.742188 189.175781 481.554688 210.195312 459.21875 217.917969 C 457.433594 246.875 433.3125 269.894531 403.933594 269.894531 " fill-opacity="1" fill-rule="nonzero"/><path fill="#ffffff" d="M 402.199219 380.460938 C 398.574219 380.460938 395.632812 377.519531 395.632812 373.890625 L 395.632812 132.207031 C 395.632812 128.582031 398.574219 125.640625 402.199219 125.640625 C 405.878906 125.640625 408.824219 128.582031 408.824219 132.207031 L 408.824219 373.890625 C 408.824219 377.519531 405.878906 380.460938 402.199219 380.460938 " fill-opacity="1" fill-rule="nonzero"/><path fill="#ffffff" d="M 402.199219 228.429688 C 400.835938 228.429688 399.414062 228.007812 398.207031 227.0625 C 395.316406 224.855469 394.792969 220.703125 397 217.816406 L 435.570312 167.890625 C 437.777344 165 441.929688 164.476562 444.820312 166.734375 C 447.710938 168.941406 448.234375 173.09375 446.027344 175.984375 L 407.457031 225.855469 C 406.140625 227.589844 404.199219 228.429688 402.199219 228.429688 " fill-opacity="1" fill-rule="nonzero"/><g clip-path="url(#c03e0ad3e8)"><path fill="#ffffff" d="M 106.601562 276.410156 C 48.109375 276.410156 0.5 214.554688 0.5 138.515625 C 0.5 62.527344 48.109375 0.671875 106.601562 0.671875 C 165.140625 0.671875 212.753906 62.527344 212.753906 138.515625 C 212.753906 142.507812 212.597656 146.449219 212.332031 150.339844 C 212.125 153.964844 209.128906 156.90625 205.34375 156.488281 C 201.71875 156.277344 198.933594 153.125 199.195312 149.496094 C 199.40625 145.871094 199.5625 142.246094 199.5625 138.515625 C 199.5625 69.777344 157.835938 13.863281 106.601562 13.863281 C 55.363281 13.863281 13.691406 69.777344 13.691406 138.515625 C 13.691406 207.304688 55.363281 263.21875 106.601562 263.21875 C 117.953125 263.21875 129.09375 260.484375 139.65625 255.074219 C 142.859375 253.390625 146.855469 254.707031 148.484375 257.964844 C 150.164062 261.167969 148.902344 265.164062 145.644531 266.84375 C 133.191406 273.203125 120.105469 276.410156 106.601562 276.410156 " fill-opacity="1" fill-rule="nonzero"/></g><path fill="#ffffff" d="M 106.601562 380.460938 C 102.972656 380.460938 100.03125 377.519531 100.03125 373.890625 L 100.03125 108.191406 C 100.03125 104.566406 102.972656 101.625 106.601562 101.625 C 110.277344 101.625 113.222656 104.566406 113.222656 108.191406 L 113.222656 373.890625 C 113.222656 377.519531 110.277344 380.460938 106.601562 380.460938 " fill-opacity="1" fill-rule="nonzero"/><path fill="#ffffff" d="M 106.601562 183.5 C 104.867188 183.5 103.132812 182.816406 101.871094 181.5 C 99.347656 178.875 99.453125 174.667969 102.082031 172.148438 C 102.449219 171.78125 141.703125 133.523438 141.703125 83.074219 C 141.703125 79.445312 144.699219 76.503906 148.324219 76.503906 C 151.953125 76.503906 154.894531 79.445312 154.894531 83.074219 C 154.894531 139.304688 112.957031 179.976562 111.171875 181.710938 C 109.910156 182.921875 108.28125 183.5 106.601562 183.5 " fill-opacity="1" fill-rule="nonzero"/><path fill="#ffffff" d="M 106.601562 235.683594 C 106.023438 235.683594 105.445312 235.578125 104.867188 235.417969 C 104.445312 235.3125 58.304688 222.019531 58.304688 159.851562 C 58.304688 156.222656 61.25 153.28125 64.925781 153.28125 C 68.554688 153.28125 71.496094 156.222656 71.496094 159.851562 C 71.496094 211.613281 106.863281 222.28125 108.386719 222.703125 C 111.90625 223.699219 113.90625 227.328125 112.957031 230.847656 C 112.117188 233.738281 109.492188 235.683594 106.601562 235.683594 " fill-opacity="1" fill-rule="nonzero"/><path fill="#ffffff" d="M 206.132812 156.539062 C 173.445312 156.539062 146.855469 192.90625 146.855469 237.574219 C 146.855469 282.292969 173.445312 318.660156 206.132812 318.660156 C 238.820312 318.660156 265.410156 282.292969 265.410156 237.574219 C 265.410156 192.90625 238.820312 156.539062 206.132812 156.539062 Z M 206.132812 331.851562 C 166.195312 331.851562 133.664062 289.546875 133.664062 237.574219 C 133.664062 185.601562 166.195312 143.296875 206.132812 143.296875 C 246.125 143.296875 278.601562 185.601562 278.601562 237.574219 C 278.601562 289.546875 246.125 331.851562 206.132812 331.851562 " fill-opacity="1" fill-rule="nonzero"/><path fill="#ffffff" d="M 206.132812 380.460938 C 202.507812 380.460938 199.5625 377.519531 199.5625 373.890625 L 199.5625 244.722656 C 199.5625 241.042969 202.507812 238.097656 206.132812 238.097656 C 209.757812 238.097656 212.753906 241.042969 212.753906 244.722656 L 212.753906 373.890625 C 212.753906 377.519531 209.757812 380.460938 206.132812 380.460938 " fill-opacity="1" fill-rule="nonzero"/><path fill="#ffffff" d="M 206.132812 284.449219 C 204.1875 284.449219 202.191406 283.554688 200.878906 281.875 C 198.671875 278.984375 199.25 274.832031 202.136719 272.625 C 202.402344 272.46875 227.625 252.8125 232.828125 219.96875 C 233.355469 216.394531 236.71875 213.925781 240.34375 214.503906 C 243.917969 215.027344 246.386719 218.445312 245.808594 222.019531 C 239.816406 260.222656 211.335938 282.242188 210.125 283.136719 C 208.917969 284.027344 207.550781 284.449219 206.132812 284.449219 " fill-opacity="1" fill-rule="nonzero"/><path fill="#ffffff" d="M 206.132812 310.988281 C 204.921875 310.988281 203.664062 310.671875 202.558594 309.9375 C 201.085938 308.992188 166.929688 286.445312 171.132812 248.714844 C 171.554688 245.089844 174.863281 242.566406 178.4375 242.882812 C 182.0625 243.300781 184.640625 246.558594 184.269531 250.1875 C 180.960938 279.878906 209.441406 298.691406 209.707031 298.847656 C 212.804688 300.84375 213.648438 304.945312 211.703125 307.992188 C 210.390625 309.9375 208.285156 310.988281 206.132812 310.988281 " fill-opacity="1" fill-rule="nonzero"/><path fill="#ffffff" d="M 69.972656 494.234375 L 500.3125 494.234375 L 500.3125 380.460938 L 69.972656 380.460938 Z M 506.9375 507.425781 L 63.351562 507.425781 C 59.722656 507.425781 56.730469 504.480469 56.730469 500.855469 L 56.730469 373.890625 C 56.730469 370.214844 59.722656 367.269531 63.351562 367.269531 L 506.9375 367.269531 C 510.5625 367.269531 513.503906 370.214844 513.503906 373.890625 L 513.503906 500.855469 C 513.503906 504.480469 510.5625 507.425781 506.9375 507.425781 " fill-opacity="1" fill-rule="nonzero"/><g clip-path="url(#d4f5e4beae)"><path fill="#ffffff" d="M 19.523438 577.632812 L 550.761719 577.632812 L 503.414062 507.425781 L 66.871094 507.425781 Z M 563.164062 590.824219 L 7.066406 590.824219 C 4.652344 590.824219 2.390625 589.507812 1.289062 587.355469 C 0.132812 585.199219 0.289062 582.574219 1.65625 580.574219 L 57.886719 497.175781 C 59.09375 495.335938 61.144531 494.234375 63.351562 494.234375 L 506.9375 494.234375 C 509.089844 494.234375 511.140625 495.335938 512.347656 497.175781 L 568.632812 580.574219 C 569.996094 582.574219 570.15625 585.199219 569 587.355469 C 567.84375 589.507812 565.582031 590.824219 563.164062 590.824219 " fill-opacity="1" fill-rule="nonzero"/></g><path fill="#ffffff" d="M 535 549.148438 L 35.234375 549.148438 C 31.558594 549.148438 28.613281 546.207031 28.613281 542.527344 C 28.613281 538.902344 31.558594 535.960938 35.234375 535.960938 L 535 535.960938 C 538.675781 535.960938 541.621094 538.902344 541.621094 542.527344 C 541.621094 546.207031 538.675781 549.148438 535 549.148438 " fill-opacity="1" fill-rule="nonzero"/><path fill="#ffffff" d="M 506.9375 443.941406 L 63.351562 443.941406 C 59.722656 443.941406 56.730469 441 56.730469 437.375 C 56.730469 433.746094 59.722656 430.753906 63.351562 430.753906 L 506.9375 430.753906 C 510.5625 430.753906 513.503906 433.746094 513.503906 437.375 C 513.503906 441 510.5625 443.941406 506.9375 443.941406 " fill-opacity="1" fill-rule="nonzero"/><path fill="#ffffff" d="M 516.710938 673.328125 C 513.085938 673.328125 510.140625 670.386719 510.140625 666.761719 L 510.140625 590.824219 L 60.09375 590.824219 L 60.09375 666.761719 C 60.09375 670.386719 57.148438 673.328125 53.523438 673.328125 C 49.898438 673.328125 46.902344 670.386719 46.902344 666.761719 L 46.902344 584.253906 C 46.902344 580.574219 49.898438 577.632812 53.523438 577.632812 L 516.710938 577.632812 C 520.390625 577.632812 523.332031 580.574219 523.332031 584.253906 L 523.332031 666.761719 C 523.332031 670.386719 520.390625 673.328125 516.710938 673.328125 " fill-opacity="1" fill-rule="nonzero"/><path fill="#ffffff" d="M 581.402344 226.75 L 617.609375 226.75 C 619.289062 210.300781 626.753906 166.367188 658.652344 144.925781 L 648.613281 114.445312 L 550.394531 114.445312 L 540.304688 144.925781 C 572.363281 166.367188 579.71875 210.300781 581.402344 226.75 Z M 623.703125 239.9375 L 575.304688 239.9375 C 571.730469 239.9375 568.839844 237.152344 568.683594 233.578125 C 568.683594 233 566.160156 174.25 529.21875 153.597656 C 526.433594 152.019531 525.171875 148.761719 526.167969 145.765625 L 539.359375 105.773438 C 540.253906 103.042969 542.777344 101.253906 545.613281 101.253906 L 653.394531 101.253906 C 656.234375 101.253906 658.757812 103.042969 659.648438 105.773438 L 672.789062 145.765625 C 673.785156 148.761719 672.523438 152.019531 669.792969 153.597656 C 632.847656 174.300781 630.328125 233 630.273438 233.578125 C 630.167969 237.152344 627.226562 239.9375 623.703125 239.9375 " fill-opacity="1" fill-rule="nonzero"/><path fill="#ffffff" d="M 666.585938 154.4375 L 532.421875 154.4375 C 528.796875 154.4375 525.800781 151.496094 525.800781 147.816406 C 525.800781 144.191406 528.796875 141.246094 532.421875 141.246094 L 666.585938 141.246094 C 670.210938 141.246094 673.15625 144.191406 673.15625 147.816406 C 673.15625 151.496094 670.210938 154.4375 666.585938 154.4375 " fill-opacity="1" fill-rule="nonzero"/><path fill="#ffffff" d="M 599.480469 620.09375 C 595.851562 620.09375 592.910156 617.152344 592.910156 613.472656 L 592.910156 233.371094 C 592.910156 229.742188 595.851562 226.75 599.480469 226.75 C 603.15625 226.75 606.101562 229.742188 606.101562 233.371094 L 606.101562 613.472656 C 606.101562 617.152344 603.15625 620.09375 599.480469 620.09375 " fill-opacity="1" fill-rule="nonzero"/><path fill="#ffffff" d="M 566.003906 660.136719 L 633.007812 660.136719 L 611.566406 620.09375 L 587.550781 620.09375 Z M 643.988281 673.328125 L 554.96875 673.328125 C 552.65625 673.328125 550.5 672.121094 549.292969 670.125 C 548.136719 668.125 548.082031 665.65625 549.1875 663.605469 L 577.773438 610.371094 C 578.929688 608.269531 581.136719 606.902344 583.609375 606.902344 L 615.507812 606.902344 C 617.976562 606.902344 620.183594 608.269531 621.339844 610.371094 L 649.824219 663.605469 C 650.925781 665.65625 650.875 668.125 649.664062 670.125 C 648.457031 672.121094 646.355469 673.328125 643.988281 673.328125 " fill-opacity="1" fill-rule="nonzero"/></svg>