<svg xmlns="http://www.w3.org/2000/svg" xmlns:xlink="http://www.w3.org/1999/xlink" width="900" zoomAndPan="magnify" viewBox="0 0 675 675.000002" height="900" preserveAspectRatio="xMidYMid meet" version="1.0"><path fill="#ffffff" d="M 364.828125 23.714844 C 191.777344 23.714844 50.992188 164.503906 50.992188 337.550781 C 50.992188 510.601562 191.777344 651.382812 364.828125 651.382812 C 465.054688 651.382812 558.738281 603.699219 617.863281 523.230469 C 583.203125 538.644531 546.261719 546.449219 507.863281 546.449219 C 358.117188 546.449219 236.285156 424.617188 236.285156 274.871094 C 236.285156 218.71875 253.285156 164.832031 285.4375 119.035156 C 314.476562 77.671875 353.847656 45.574219 399.835938 25.652344 C 388.222656 24.371094 376.496094 23.714844 364.828125 23.714844 Z M 364.828125 657.882812 C 188.191406 657.882812 44.488281 514.179688 44.488281 337.550781 C 44.488281 160.917969 188.191406 17.214844 364.828125 17.214844 C 380.910156 17.214844 397.101562 18.425781 412.949219 20.8125 L 425.203125 22.660156 L 413.621094 27.066406 C 311.441406 65.949219 242.789062 165.53125 242.789062 274.871094 C 242.789062 421.03125 361.703125 539.945312 507.863281 539.945312 C 549.417969 539.945312 589.222656 530.585938 626.167969 512.125 L 637.265625 506.582031 L 630.3125 516.855469 C 570.554688 605.164062 471.308594 657.882812 364.828125 657.882812 " fill-opacity="1" fill-rule="nonzero"/><path fill="#ffffff" d="M 365.703125 656.386719 C 290.523438 656.125 217.707031 629.4375 160.183594 581.019531 C 104.566406 534.207031 66.46875 468.585938 52.558594 397.328125 C 38.113281 323.316406 51.382812 245.398438 88.363281 179.847656 C 124.351562 116.066406 182.640625 66.285156 250.761719 39.714844 C 306.71875 17.894531 365.4375 15.285156 424.324219 24.152344 C 424.292969 23.277344 424.257812 22.394531 424.222656 21.511719 C 393.710938 33.125 365.082031 47.285156 339.664062 68.089844 C 310.597656 91.878906 286.820312 121.328125 269.59375 154.699219 C 235.167969 221.417969 231.453125 301.113281 258.25 371.058594 C 283.539062 437.082031 335.9375 490.816406 400.453125 519.25 C 473.855469 551.597656 558.65625 547.488281 630.023438 511.832031 C 632.765625 510.46875 635.507812 509.09375 638.246094 507.722656 C 637.179688 507.296875 636.117188 506.867188 635.050781 506.433594 C 606.414062 548.746094 572.28125 584.640625 528.332031 611.285156 C 479.519531 640.878906 422.679688 656.167969 365.703125 656.386719 C 363.734375 656.398438 360.769531 659.386719 363.949219 659.382812 C 421.328125 659.160156 477.445312 644.09375 527.171875 615.464844 C 573.609375 588.734375 609.6875 550.757812 639.484375 506.722656 C 640.695312 504.929688 637.082031 505.039062 636.289062 505.433594 C 596.753906 525.183594 556.238281 537.71875 511.703125 538.433594 C 473.359375 539.050781 435.113281 530.753906 400.207031 515.027344 C 333.5 484.96875 281.804688 426.683594 258.546875 357.519531 C 235.691406 289.578125 242.839844 214.15625 276.140625 150.949219 C 293 118.941406 316.71875 90.675781 344.878906 68.027344 C 369.386719 48.320312 396.96875 34.921875 426.179688 23.804688 C 427.90625 23.148438 427.964844 21.449219 426.070312 21.164062 C 389.90625 15.714844 354.128906 13.949219 317.828125 19.214844 C 282.8125 24.285156 248.792969 35.460938 217.335938 51.582031 C 155.128906 83.441406 104.496094 135.84375 73.941406 198.59375 C 41.925781 264.332031 34.152344 340.445312 50.609375 411.539062 C 66.699219 481.03125 107.085938 543.660156 162.417969 588.390625 C 219.234375 634.320312 291.023438 659.121094 363.949219 659.382812 C 365.925781 659.386719 368.890625 656.398438 365.703125 656.386719 " fill-opacity="1" fill-rule="nonzero"/><path fill="#ffffff" d="M 365.703125 22.21875 C 294.21875 22.476562 224.757812 46.484375 168.585938 90.75 C 113.328125 134.289062 73.96875 196.128906 57.296875 264.390625 C 39.789062 336.039062 49.085938 412.96875 81.957031 478.835938 C 113.429688 541.894531 166.496094 592.957031 230.082031 623.070312 C 293.492188 653.097656 366.171875 660.183594 434.492188 645.019531 C 508.707031 628.550781 574.949219 584.296875 620.078125 523.375 C 621.394531 521.597656 617.601562 521.769531 616.886719 522.085938 C 537.703125 556.792969 445.914062 551.113281 371.519531 507.355469 C 308.453125 470.265625 262.832031 407.425781 245.828125 336.433594 C 231.523438 276.707031 238.890625 212.78125 265.203125 157.429688 C 292.882812 99.195312 341.925781 52.648438 400.816406 26.800781 C 402.402344 26.101562 402.726562 24.375 400.707031 24.160156 C 389.0625 22.929688 377.410156 22.28125 365.703125 22.21875 C 363.730469 22.210938 360.761719 25.195312 363.949219 25.214844 C 375.664062 25.269531 387.316406 25.917969 398.960938 27.148438 C 398.921875 26.269531 398.890625 25.390625 398.851562 24.507812 C 319.492188 59.339844 260.355469 130.046875 240.6875 214.554688 C 223.277344 289.328125 239.761719 369.277344 283.59375 431.972656 C 316.578125 479.152344 364.761719 514.683594 419.0625 533.433594 C 483.875 555.8125 556.230469 551.820312 618.839844 524.378906 C 617.773438 523.945312 616.707031 523.519531 615.640625 523.089844 C 564.226562 592.5 485.996094 637.984375 400.160156 647.945312 C 323.867188 656.796875 246.210938 635.777344 183.875 591.28125 C 124.355469 548.785156 81.398438 485.253906 63.074219 414.59375 C 44.09375 341.40625 53.347656 262.394531 87.503906 195.121094 C 139.898438 91.9375 248.445312 25.625 363.949219 25.214844 C 365.917969 25.199219 368.882812 22.210938 365.703125 22.21875 " fill-opacity="1" fill-rule="nonzero"/><path fill="#ffffff" d="M 406.511719 359 C 410.726562 360.859375 416.289062 363.84375 419 367.570312 C 421.710938 363.84375 427.273438 360.859375 431.488281 359 C 424.765625 356.28125 420.917969 349.164062 419 344.277344 C 417.082031 349.164062 413.234375 356.28125 406.511719 359 Z M 420.625 372.023438 L 417.375 372.023438 C 417.375 367.457031 406.839844 362.238281 400.199219 360.023438 L 390.714844 356.855469 L 400.714844 356.855469 C 413.09375 356.855469 417.375 338.796875 417.410156 338.613281 L 418.992188 331.722656 L 420.578125 338.613281 C 420.625 338.796875 424.933594 356.855469 437.285156 356.855469 L 447.285156 356.855469 L 437.800781 360.023438 C 431.15625 362.238281 420.625 367.457031 420.625 372.023438 " fill-opacity="1" fill-rule="nonzero"/><path fill="#ffffff" d="M 421.613281 370.960938 C 418.625 370.960938 419.488281 369.652344 417.527344 367.378906 C 415.226562 364.714844 411.273438 362.839844 408.121094 361.449219 C 403.09375 359.222656 397.84375 357.617188 392.628906 355.875 C 391.660156 356.554688 390.695312 357.234375 389.722656 357.921875 C 397.214844 357.921875 405.746094 358.988281 411.582031 353.160156 C 417.640625 347.109375 419.488281 339.367188 421.324219 331.34375 C 419.761719 331.679688 418.199219 332.015625 416.636719 332.351562 C 418.269531 339.414062 419.835938 345.855469 424.257812 351.820312 C 429.699219 359.164062 438.261719 357.921875 446.292969 357.921875 C 446.34375 357.34375 446.390625 356.765625 446.433594 356.1875 C 438.257812 358.917969 420.261719 362.5 418.292969 372.402344 C 418.027344 373.730469 422.699219 372.929688 422.953125 371.648438 C 424.664062 363.070312 440.636719 360.023438 448.136719 357.519531 C 449.578125 357.039062 450.261719 355.785156 448.273438 355.785156 C 438.65625 355.785156 431.664062 355.769531 426.308594 346.523438 C 423.550781 341.761719 422.566406 336.378906 421.347656 331.09375 C 421.0625 329.855469 416.898438 331.070312 416.664062 332.105469 C 415.53125 337.019531 414.542969 341.652344 412.390625 346.242188 C 407.898438 355.824219 400.820312 355.785156 391.703125 355.785156 C 391.125 355.785156 387.03125 357.246094 388.796875 357.835938 C 396.574219 360.433594 413.207031 363.546875 415.019531 372.65625 C 415.121094 373.152344 416.058594 373.089844 416.382812 373.089844 C 417.46875 373.089844 418.554688 373.089844 419.632812 373.089844 C 421.042969 373.089844 424.765625 370.960938 421.613281 370.960938 " fill-opacity="1" fill-rule="nonzero"/><path fill="#ffffff" d="M 404.59375 359.984375 C 409.136719 362.039062 413.601562 364.472656 416.789062 368.410156 C 417.550781 369.347656 420.5625 368.1875 421.152344 367.464844 C 424.21875 363.671875 428.503906 361.40625 432.878906 359.425781 C 433.480469 359.152344 434.332031 358.441406 433.40625 358.015625 C 427.347656 355.242188 423.792969 349.621094 421.355469 343.640625 C 420.828125 342.34375 417.074219 343.660156 416.667969 344.648438 C 414.3125 350.421875 410.980469 355.882812 405.121094 358.566406 C 402.273438 359.875 406.664062 359.996094 407.894531 359.425781 C 414.554688 356.371094 418.628906 350.523438 421.328125 343.894531 C 419.765625 344.230469 418.207031 344.566406 416.644531 344.90625 C 419.265625 351.335938 423.101562 357.011719 429.578125 359.984375 C 429.75 359.507812 429.925781 359.039062 430.105469 358.566406 C 425.203125 360.789062 420.28125 363.429688 416.847656 367.679688 C 418.300781 367.363281 419.753906 367.042969 421.207031 366.734375 C 417.882812 362.625 413.15625 360.160156 408.425781 358.015625 C 407.308594 357.515625 402.992188 359.253906 404.59375 359.984375 " fill-opacity="1" fill-rule="nonzero"/><path fill="#ffffff" d="M 475.589844 280.503906 C 479.804688 282.363281 485.367188 285.355469 488.078125 289.074219 C 490.789062 285.355469 496.351562 282.363281 500.566406 280.503906 C 493.84375 277.792969 489.996094 270.675781 488.078125 265.78125 C 486.160156 270.675781 482.3125 277.792969 475.589844 280.503906 Z M 489.703125 293.53125 L 486.453125 293.53125 C 486.453125 288.96875 475.917969 283.75 469.277344 281.527344 L 459.792969 278.359375 L 469.792969 278.359375 C 482.171875 278.359375 486.453125 260.300781 486.492188 260.117188 L 488.070312 253.226562 L 489.660156 260.117188 C 489.703125 260.300781 494.015625 278.359375 506.363281 278.359375 L 516.363281 278.359375 L 506.878906 281.527344 C 500.238281 283.75 489.703125 288.96875 489.703125 293.53125 " fill-opacity="1" fill-rule="nonzero"/><path fill="#ffffff" d="M 489.933594 291.882812 C 488.847656 291.882812 487.765625 291.882812 486.683594 291.882812 C 487.394531 292.21875 488.097656 292.5625 488.808594 292.902344 C 486.839844 282.988281 469.40625 279.578125 461.164062 276.828125 C 460.628906 277.886719 460.097656 278.949219 459.5625 280.015625 C 468.597656 280.015625 476.207031 280.605469 482.585938 273.125 C 487.40625 267.476562 488.847656 260.035156 490.453125 253.03125 C 488.878906 253.308594 487.296875 253.582031 485.714844 253.863281 C 487.355469 260.949219 488.953125 267.519531 493.378906 273.5 C 499.03125 281.132812 507.761719 280.015625 516.136719 280.015625 C 516.074219 278.949219 516.015625 277.886719 515.953125 276.820312 C 507.222656 279.734375 489.417969 283.195312 487.324219 293.730469 C 486.871094 295.988281 491.683594 295.347656 492.085938 293.335938 C 493.679688 285.308594 509.921875 282.1875 516.777344 279.902344 C 519.089844 279.132812 519.386719 276.707031 516.59375 276.707031 C 507.855469 276.707031 501.273438 277.121094 495.945312 268.9375 C 492.746094 264.027344 491.722656 258.199219 490.429688 252.597656 C 489.933594 250.464844 486.066406 251.804688 485.691406 253.429688 C 484.484375 258.707031 483.40625 263.582031 480.890625 268.425781 C 476.210938 277.449219 468.699219 276.707031 460.019531 276.707031 C 458.460938 276.707031 456.007812 279.09375 458.421875 279.894531 C 465.863281 282.382812 482.378906 285.496094 484.097656 294.160156 C 484.28125 295.089844 485.5 295.183594 486.222656 295.183594 C 487.308594 295.183594 488.390625 295.183594 489.476562 295.183594 C 492.109375 295.183594 493.132812 291.882812 489.933594 291.882812 " fill-opacity="1" fill-rule="nonzero"/><path fill="#ffffff" d="M 474.210938 282.039062 C 478.554688 284.007812 482.871094 286.332031 485.917969 290.097656 C 486.867188 291.265625 489.191406 290.765625 490.035156 289.714844 C 493.054688 285.984375 497.285156 283.773438 501.597656 281.824219 C 502.972656 281.195312 503.5 279.683594 501.945312 278.972656 C 496.167969 276.324219 492.75 270.828125 490.433594 265.152344 C 489.730469 263.425781 486.464844 264.003906 485.835938 265.550781 C 483.53125 271.195312 480.308594 276.554688 474.5625 279.191406 C 471.621094 280.542969 474.257812 282.902344 476.613281 281.824219 C 483.386719 278.71875 487.570312 272.765625 490.320312 266.015625 C 488.789062 266.148438 487.253906 266.28125 485.722656 266.414062 C 488.464844 273.132812 492.445312 278.949219 499.195312 282.039062 C 499.308594 281.089844 499.429688 280.140625 499.546875 279.191406 C 494.574219 281.445312 489.601562 284.128906 486.121094 288.433594 C 487.496094 288.308594 488.867188 288.1875 490.238281 288.058594 C 486.777344 283.78125 481.894531 281.207031 476.960938 278.972656 C 475.089844 278.121094 471.507812 280.816406 474.210938 282.039062 " fill-opacity="1" fill-rule="nonzero"/><path fill="#ffffff" d="M 346.675781 271.558594 C 350.890625 273.417969 356.453125 276.410156 359.164062 280.128906 C 361.875 276.410156 367.4375 273.417969 371.660156 271.558594 C 364.929688 268.847656 361.085938 261.722656 359.164062 256.835938 C 357.246094 261.722656 353.398438 268.847656 346.675781 271.558594 Z M 360.789062 284.585938 L 357.539062 284.585938 C 357.539062 280.015625 347.003906 274.796875 340.363281 272.582031 L 330.878906 269.410156 L 340.878906 269.410156 C 353.257812 269.410156 357.539062 251.355469 357.582031 251.171875 L 359.15625 244.28125 L 360.75 251.171875 C 360.789062 251.355469 365.101562 269.410156 377.449219 269.410156 L 387.449219 269.410156 L 377.964844 272.582031 C 371.324219 274.796875 360.789062 280.015625 360.789062 284.585938 " fill-opacity="1" fill-rule="nonzero"/><path fill="#ffffff" d="M 362.3125 283.609375 C 359.285156 283.609375 359.570312 282.136719 357.695312 279.96875 C 354.949219 276.785156 350.25 274.917969 346.503906 273.257812 C 342.109375 271.308594 337.367188 270.015625 332.808594 268.492188 C 331.660156 269.125 330.507812 269.753906 329.355469 270.390625 C 337.492188 270.390625 345.085938 271.183594 351.730469 265.660156 C 358.066406 260.390625 359.746094 251.457031 361.488281 243.875 C 359.925781 244.21875 358.363281 244.566406 356.808594 244.917969 C 359.1875 255.242188 362.960938 270.390625 376.203125 270.390625 C 379.355469 270.390625 382.503906 270.390625 385.644531 270.390625 C 386.75 269.039062 386.75 268.636719 385.644531 269.191406 C 384.867188 269.457031 384.078125 269.714844 383.296875 269.976562 C 381.570312 270.546875 379.855469 271.125 378.136719 271.699219 C 371.984375 273.753906 359.9375 277.582031 358.464844 284.992188 C 358.242188 286.109375 362.882812 285.34375 363.113281 284.171875 C 364.832031 275.519531 380.726562 272.484375 388.269531 269.964844 C 388.941406 269.742188 390.789062 268.441406 388.972656 268.441406 C 379.894531 268.441406 372.789062 268.917969 367.226562 260.375 C 363.9375 255.324219 362.847656 249.410156 361.511719 243.652344 C 361.273438 242.59375 357.050781 243.761719 356.832031 244.695312 C 355.816406 249.125 354.933594 253.394531 353.152344 257.589844 C 351.113281 262.371094 347.289062 268.441406 341.367188 268.441406 C 338.375 268.441406 335.386719 268.441406 332.402344 268.441406 C 331.804688 268.441406 327.269531 269.78125 328.949219 270.339844 C 336.710938 272.929688 353.367188 276.070312 355.183594 285.214844 C 355.246094 285.511719 355.816406 285.558594 356.015625 285.558594 C 357.101562 285.558594 358.1875 285.558594 359.265625 285.558594 C 360.269531 285.558594 364.636719 283.609375 362.3125 283.609375 " fill-opacity="1" fill-rule="nonzero"/><path fill="#ffffff" d="M 344.457031 272.363281 C 349.101562 274.464844 353.691406 276.917969 356.949219 280.9375 C 357.628906 281.773438 360.769531 280.617188 361.296875 279.964844 C 364.371094 276.167969 368.636719 273.867188 373.019531 271.882812 C 373.15625 271.816406 374.527344 271.050781 373.875 270.75 C 367.671875 267.90625 364.027344 262.34375 361.519531 256.207031 C 361.054688 255.074219 357.207031 256.351562 356.839844 257.246094 C 354.503906 262.988281 351.15625 268.554688 345.316406 271.234375 C 342.484375 272.53125 346.910156 272.402344 348.035156 271.882812 C 354.710938 268.820312 358.777344 263.082031 361.488281 256.425781 C 359.933594 256.769531 358.371094 257.121094 356.808594 257.46875 C 359.359375 263.730469 363.113281 269.460938 369.4375 272.363281 C 369.722656 271.988281 370.007812 271.609375 370.292969 271.234375 C 365.40625 273.449219 360.457031 276.058594 357.03125 280.300781 C 358.476562 279.96875 359.933594 279.648438 361.386719 279.324219 C 358.128906 275.296875 353.53125 272.851562 348.890625 270.75 C 347.621094 270.171875 343.914062 272.117188 344.457031 272.363281 " fill-opacity="1" fill-rule="nonzero"/></svg>