<svg xmlns="http://www.w3.org/2000/svg" xmlns:xlink="http://www.w3.org/1999/xlink" width="500" zoomAndPan="magnify" viewBox="0 0 375 374.999991" height="500" preserveAspectRatio="xMidYMid meet" version="1.0"><defs><clipPath id="7e7fc8aef0"><path d="M 5.609375 10 L 368 10 L 368 274 L 5.609375 274 Z M 5.609375 10 " clip-rule="nonzero"/></clipPath></defs><path fill="#ffffff" d="M 62.867188 269.007812 C 59.5 267.660156 55.457031 269.683594 54.109375 273.050781 L 44.007812 304.039062 C 42.660156 307.40625 44.679688 311.449219 48.046875 312.796875 C 48.722656 312.796875 49.394531 313.46875 50.070312 313.46875 C 52.761719 313.46875 55.457031 311.449219 56.132812 308.753906 L 66.238281 277.765625 C 68.257812 273.722656 66.238281 269.683594 62.867188 269.007812 Z M 62.867188 269.007812 " fill-opacity="1" fill-rule="nonzero"/><path fill="#ffffff" d="M 107.328125 320.207031 C 103.960938 318.859375 99.917969 320.878906 98.570312 324.246094 L 88.46875 355.234375 C 87.121094 358.605469 89.140625 362.644531 92.507812 363.992188 C 93.183594 363.992188 93.855469 364.667969 94.53125 364.667969 C 97.226562 364.667969 99.917969 362.644531 100.59375 359.953125 L 110.699219 328.964844 C 112.71875 324.921875 110.699219 321.554688 107.328125 320.207031 Z M 107.328125 320.207031 " fill-opacity="1" fill-rule="nonzero"/><path fill="#ffffff" d="M 230.609375 320.207031 C 227.238281 318.859375 223.199219 320.878906 221.851562 324.246094 L 211.746094 355.234375 C 210.398438 358.605469 212.417969 362.644531 215.789062 363.992188 C 216.460938 363.992188 217.136719 364.667969 217.808594 364.667969 C 220.503906 364.667969 223.199219 362.644531 223.871094 359.953125 L 233.976562 328.964844 C 235.996094 324.921875 234.648438 321.554688 230.609375 320.207031 Z M 230.609375 320.207031 " fill-opacity="1" fill-rule="nonzero"/><path fill="#ffffff" d="M 186.148438 269.007812 C 182.777344 267.660156 178.738281 269.683594 177.390625 273.050781 L 167.285156 304.039062 C 165.9375 307.40625 167.957031 311.449219 171.328125 312.796875 C 172 312.796875 172.675781 313.46875 173.347656 313.46875 C 176.042969 313.46875 178.738281 311.449219 179.410156 308.753906 L 189.515625 277.765625 C 191.535156 273.722656 189.515625 269.683594 186.148438 269.007812 Z M 186.148438 269.007812 " fill-opacity="1" fill-rule="nonzero"/><path fill="#ffffff" d="M 310.097656 269.007812 C 306.730469 267.660156 302.6875 269.683594 301.34375 273.050781 L 291.238281 304.039062 C 289.890625 307.40625 291.910156 311.449219 295.277344 312.796875 C 295.953125 312.796875 296.625 313.46875 297.300781 313.46875 C 299.996094 313.46875 302.6875 311.449219 303.363281 308.753906 L 313.46875 277.765625 C 315.488281 273.722656 313.46875 269.683594 310.097656 269.007812 Z M 310.097656 269.007812 " fill-opacity="1" fill-rule="nonzero"/><g clip-path="url(#7e7fc8aef0)"><path fill="#ffffff" d="M 317.507812 124.171875 C 317.507812 122.824219 317.507812 121.476562 317.507812 120.128906 C 317.507812 59.5 268.332031 10.324219 207.703125 10.324219 C 160.546875 10.324219 118.78125 40.640625 103.960938 85.101562 C 97.226562 83.078125 91.160156 82.40625 84.425781 82.40625 C 41.3125 83.078125 5.609375 118.109375 5.609375 161.898438 C 5.609375 205.683594 41.3125 240.714844 84.425781 240.714844 L 126.867188 240.714844 L 119.457031 262.945312 C 118.109375 266.3125 120.128906 270.355469 123.496094 271.703125 C 124.171875 271.703125 124.84375 272.375 125.519531 272.375 C 128.210938 272.375 130.90625 270.355469 131.582031 267.660156 L 140.339844 241.386719 L 249.46875 241.386719 L 242.058594 263.617188 C 240.714844 266.988281 242.734375 271.027344 246.101562 272.375 C 246.777344 272.375 247.449219 273.050781 248.125 273.050781 C 250.816406 273.050781 253.511719 271.027344 254.1875 268.335938 L 262.945312 242.0625 L 309.425781 242.0625 C 341.761719 242.0625 367.359375 215.789062 367.359375 184.128906 C 369.382812 152.464844 346.476562 127.539062 317.507812 124.171875 Z M 311.445312 227.242188 L 84.425781 227.242188 C 48.046875 227.242188 19.082031 197.601562 19.082031 161.898438 C 19.082031 125.519531 48.722656 96.550781 84.425781 96.550781 C 91.835938 96.550781 99.246094 97.898438 106.65625 100.59375 C 108.675781 101.269531 110.699219 101.269531 112.046875 99.921875 C 113.390625 99.246094 114.738281 97.226562 115.414062 95.878906 C 126.867188 54.113281 164.589844 24.472656 208.378906 24.472656 C 261.597656 24.472656 304.710938 67.585938 304.710938 120.804688 C 304.710938 124.171875 304.710938 126.867188 304.035156 130.234375 C 304.035156 132.257812 304.710938 134.277344 306.058594 135.625 C 307.40625 136.972656 309.425781 137.644531 310.773438 137.644531 L 311.445312 137.644531 C 336.371094 137.644531 355.90625 157.855469 355.90625 182.105469 C 355.90625 206.359375 335.699219 227.242188 311.445312 227.242188 Z M 311.445312 227.242188 " fill-opacity="1" fill-rule="nonzero"/></g></svg>