<svg xmlns="http://www.w3.org/2000/svg" xmlns:xlink="http://www.w3.org/1999/xlink" width="900" zoomAndPan="magnify" viewBox="0 0 675 675.000002" height="900" preserveAspectRatio="xMidYMid meet" version="1.0"><defs><clipPath id="e06fb8b555"><path d="M 9.464844 10.195312 L 310 10.195312 L 310 355 L 9.464844 355 Z M 9.464844 10.195312 " clip-rule="nonzero"/></clipPath><clipPath id="e41fe35b81"><path d="M 85 24 L 665.492188 24 L 665.492188 401 L 85 401 Z M 85 24 " clip-rule="nonzero"/></clipPath><clipPath id="deab6e2e99"><path d="M 121 609 L 161 609 L 161 663.976562 L 121 663.976562 Z M 121 609 " clip-rule="nonzero"/></clipPath><clipPath id="ddec2300d6"><path d="M 298 609 L 338 609 L 338 663.976562 L 298 663.976562 Z M 298 609 " clip-rule="nonzero"/></clipPath><clipPath id="d683eaf81e"><path d="M 298 609 L 338 609 L 338 663.976562 L 298 663.976562 Z M 298 609 " clip-rule="nonzero"/></clipPath><clipPath id="707ebd97ae"><path d="M 474 609 L 514 609 L 514 663.976562 L 474 663.976562 Z M 474 609 " clip-rule="nonzero"/></clipPath></defs><g clip-path="url(#e06fb8b555)"><path fill="#ffffff" d="M 124.804688 354.363281 L 124.535156 354.363281 C 124.011719 354.363281 123.5 354.308594 123.003906 354.210938 C 58.28125 346.855469 9.597656 293.917969 9.597656 230.6875 C 9.597656 178.386719 43.695312 131.925781 94.898438 113.78125 C 102.574219 85.261719 119.882812 59.492188 143.992188 40.84375 C 169.578125 21.058594 201.832031 10.15625 234.816406 10.15625 C 259.835938 10.15625 284.351562 16.277344 305.710938 27.851562 C 309.476562 29.890625 310.871094 34.589844 308.832031 38.355469 C 306.792969 42.117188 302.09375 43.515625 298.332031 41.476562 C 279.226562 31.125 257.265625 25.65625 234.816406 25.65625 C 174.839844 25.65625 121.898438 65.980469 108.929688 121.535156 C 108.308594 124.191406 106.335938 126.324219 103.738281 127.15625 C 56.699219 142.160156 25.09375 183.765625 25.09375 230.6875 C 25.09375 286.296875 68.3125 332.820312 125.625 338.910156 C 129.71875 339.34375 132.761719 342.910156 132.542969 347.023438 C 132.324219 351.136719 128.925781 354.363281 124.804688 354.363281 Z M 124.804688 354.363281 " fill-opacity="1" fill-rule="nonzero"/></g><g clip-path="url(#e41fe35b81)"><path fill="#ffffff" d="M 522.957031 400.722656 L 388.941406 400.722656 C 384.664062 400.722656 381.191406 397.25 381.191406 392.972656 C 381.191406 388.695312 384.664062 385.222656 388.941406 385.222656 L 522.957031 385.222656 C 592.953125 385.222656 649.902344 331.273438 649.902344 264.960938 C 649.902344 211.84375 613.875 165.644531 560.253906 150 C 558.125 149.382812 556.363281 147.878906 555.417969 145.875 C 533.660156 99.84375 485.328125 70.097656 432.273438 70.097656 C 429.722656 70.097656 427.113281 70.175781 424.296875 70.332031 C 422.464844 70.4375 420.671875 69.886719 419.210938 68.789062 C 394.007812 49.863281 363.667969 39.863281 331.46875 39.863281 C 265.554688 39.863281 207.359375 84.21875 193.09375 145.328125 C 192.472656 147.984375 190.5 150.117188 187.902344 150.949219 C 136.148438 167.46875 101.375 213.285156 101.375 264.960938 C 101.375 331.273438 158.324219 385.222656 228.324219 385.222656 L 317.871094 385.222656 C 322.148438 385.222656 325.621094 388.695312 325.621094 392.972656 C 325.621094 397.25 322.148438 400.722656 317.871094 400.722656 L 228.324219 400.722656 C 190.320312 400.722656 154.601562 386.683594 127.746094 361.191406 C 100.746094 335.566406 85.878906 301.390625 85.878906 264.960938 C 85.878906 207.910156 123.144531 157.238281 179.054688 137.570312 C 187.359375 106.386719 206.246094 78.1875 232.585938 57.800781 C 260.441406 36.242188 295.558594 24.367188 331.46875 24.367188 C 366.089844 24.367188 398.792969 34.851562 426.242188 54.726562 C 428.316406 54.644531 430.304688 54.601562 432.269531 54.601562 C 490.082031 54.601562 542.925781 86.492188 567.902344 136.132812 C 595.457031 144.859375 619.214844 161.113281 636.78125 183.296875 C 655.5 206.933594 665.394531 235.171875 665.394531 264.960938 C 665.394531 301.390625 650.527344 335.566406 623.53125 361.191406 C 596.675781 386.683594 560.957031 400.722656 522.957031 400.722656 Z M 522.957031 400.722656 " fill-opacity="1" fill-rule="nonzero"/></g><path fill="#ffffff" d="M 136.117188 486.007812 C 134.761719 486.007812 133.386719 485.652344 132.136719 484.902344 C 128.46875 482.703125 127.277344 477.941406 129.480469 474.273438 L 152.660156 435.640625 C 154.859375 431.972656 159.621094 430.78125 163.289062 432.984375 C 166.960938 435.183594 168.148438 439.945312 165.949219 443.613281 L 142.769531 482.246094 C 141.316406 484.667969 138.75 486.007812 136.117188 486.007812 Z M 136.117188 486.007812 " fill-opacity="1" fill-rule="nonzero"/><path fill="#ffffff" d="M 168.308594 541.382812 C 166.953125 541.382812 165.578125 541.023438 164.332031 540.277344 C 160.660156 538.074219 159.46875 533.316406 161.671875 529.644531 L 184.851562 491.015625 C 187.054688 487.347656 191.8125 486.152344 195.484375 488.355469 C 199.152344 490.558594 200.34375 495.316406 198.140625 498.988281 L 174.960938 537.617188 C 173.507812 540.039062 170.941406 541.382812 168.308594 541.382812 Z M 168.308594 541.382812 " fill-opacity="1" fill-rule="nonzero"/><path fill="#ffffff" d="M 168.308594 541.382812 C 166.953125 541.382812 165.578125 541.023438 164.332031 540.277344 C 160.660156 538.074219 159.46875 533.316406 161.671875 529.644531 L 184.851562 491.015625 C 187.054688 487.347656 191.8125 486.152344 195.484375 488.355469 C 199.152344 490.558594 200.34375 495.316406 198.140625 498.988281 L 174.960938 537.617188 C 173.507812 540.039062 170.941406 541.382812 168.308594 541.382812 Z M 168.308594 541.382812 " fill-opacity="1" fill-rule="nonzero"/><path fill="#ffffff" d="M 200.503906 612.207031 C 199.144531 612.207031 197.769531 611.847656 196.523438 611.101562 C 192.851562 608.898438 191.664062 604.140625 193.867188 600.46875 L 217.042969 561.839844 C 219.246094 558.167969 224.003906 556.976562 227.675781 559.179688 C 231.347656 561.382812 232.535156 566.140625 230.332031 569.8125 L 207.15625 608.441406 C 205.703125 610.863281 203.132812 612.207031 200.503906 612.207031 Z M 200.503906 612.207031 " fill-opacity="1" fill-rule="nonzero"/><path fill="#ffffff" d="M 97.484375 592.890625 C 96.128906 592.890625 94.753906 592.53125 93.503906 591.785156 C 89.835938 589.582031 88.644531 584.824219 90.847656 581.152344 L 114.027344 542.523438 C 116.230469 538.851562 120.988281 537.660156 124.65625 539.863281 C 128.328125 542.066406 129.519531 546.824219 127.316406 550.496094 L 104.136719 589.125 C 102.683594 591.546875 100.117188 592.890625 97.484375 592.890625 Z M 97.484375 592.890625 " fill-opacity="1" fill-rule="nonzero"/><path fill="#ffffff" d="M 97.484375 592.890625 C 96.128906 592.890625 94.753906 592.53125 93.503906 591.785156 C 89.835938 589.582031 88.644531 584.824219 90.847656 581.152344 L 114.027344 542.523438 C 116.230469 538.851562 120.988281 537.660156 124.65625 539.863281 C 128.328125 542.066406 129.519531 546.824219 127.316406 550.496094 L 104.136719 589.125 C 102.683594 591.546875 100.117188 592.890625 97.484375 592.890625 Z M 97.484375 592.890625 " fill-opacity="1" fill-rule="nonzero"/><g clip-path="url(#deab6e2e99)"><path fill="#ffffff" d="M 129.679688 663.714844 C 128.320312 663.714844 126.945312 663.355469 125.699219 662.609375 C 122.027344 660.40625 120.839844 655.648438 123.039062 651.976562 L 146.21875 613.347656 C 148.421875 609.679688 153.183594 608.484375 156.851562 610.6875 C 160.523438 612.890625 161.710938 617.648438 159.507812 621.320312 L 136.328125 659.949219 C 134.878906 662.371094 132.3125 663.714844 129.679688 663.714844 Z M 129.679688 663.714844 " fill-opacity="1" fill-rule="nonzero"/></g><path fill="#ffffff" d="M 376.917969 612.207031 C 375.5625 612.207031 374.1875 611.847656 372.941406 611.101562 C 369.269531 608.898438 368.082031 604.140625 370.28125 600.46875 L 393.460938 561.839844 C 395.664062 558.167969 400.421875 556.980469 404.089844 559.179688 C 407.761719 561.382812 408.953125 566.140625 406.75 569.8125 L 383.570312 608.441406 C 382.117188 610.863281 379.550781 612.207031 376.917969 612.207031 Z M 376.917969 612.207031 " fill-opacity="1" fill-rule="nonzero"/><path fill="#ffffff" d="M 273.902344 592.890625 C 272.546875 592.890625 271.171875 592.53125 269.921875 591.785156 C 266.253906 589.582031 265.0625 584.824219 267.265625 581.152344 L 290.445312 542.523438 C 292.648438 538.851562 297.40625 537.660156 301.074219 539.863281 C 304.746094 542.066406 305.9375 546.824219 303.734375 550.496094 L 280.554688 589.125 C 279.101562 591.546875 276.535156 592.890625 273.902344 592.890625 Z M 273.902344 592.890625 " fill-opacity="1" fill-rule="nonzero"/><path fill="#ffffff" d="M 273.902344 592.890625 C 272.546875 592.890625 271.171875 592.53125 269.921875 591.785156 C 266.253906 589.582031 265.0625 584.824219 267.265625 581.152344 L 290.445312 542.523438 C 292.648438 538.851562 297.40625 537.660156 301.074219 539.863281 C 304.746094 542.066406 305.9375 546.824219 303.734375 550.496094 L 280.554688 589.125 C 279.101562 591.546875 276.535156 592.890625 273.902344 592.890625 Z M 273.902344 592.890625 " fill-opacity="1" fill-rule="nonzero"/><g clip-path="url(#ddec2300d6)"><path fill="#ffffff" d="M 306.097656 663.714844 C 304.738281 663.714844 303.363281 663.355469 302.117188 662.609375 C 298.445312 660.40625 297.257812 655.648438 299.460938 651.976562 L 322.636719 613.347656 C 324.839844 609.679688 329.601562 608.484375 333.269531 610.6875 C 336.941406 612.890625 338.128906 617.648438 335.925781 621.320312 L 312.75 659.949219 C 311.292969 662.371094 308.726562 663.714844 306.097656 663.714844 Z M 306.097656 663.714844 " fill-opacity="1" fill-rule="nonzero"/></g><path fill="#ffffff" d="M 376.917969 612.207031 C 375.5625 612.207031 374.1875 611.847656 372.941406 611.101562 C 369.269531 608.898438 368.082031 604.140625 370.28125 600.46875 L 393.460938 561.839844 C 395.664062 558.167969 400.421875 556.980469 404.089844 559.179688 C 407.761719 561.382812 408.953125 566.140625 406.75 569.8125 L 383.570312 608.441406 C 382.117188 610.863281 379.550781 612.207031 376.917969 612.207031 Z M 376.917969 612.207031 " fill-opacity="1" fill-rule="nonzero"/><path fill="#ffffff" d="M 273.902344 592.890625 C 272.546875 592.890625 271.171875 592.53125 269.921875 591.785156 C 266.253906 589.582031 265.0625 584.824219 267.265625 581.152344 L 290.445312 542.523438 C 292.648438 538.851562 297.40625 537.660156 301.074219 539.863281 C 304.746094 542.066406 305.9375 546.824219 303.734375 550.496094 L 280.554688 589.125 C 279.101562 591.546875 276.535156 592.890625 273.902344 592.890625 Z M 273.902344 592.890625 " fill-opacity="1" fill-rule="nonzero"/><path fill="#ffffff" d="M 273.902344 592.890625 C 272.546875 592.890625 271.171875 592.53125 269.921875 591.785156 C 266.253906 589.582031 265.0625 584.824219 267.265625 581.152344 L 290.445312 542.523438 C 292.648438 538.851562 297.40625 537.660156 301.074219 539.863281 C 304.746094 542.066406 305.9375 546.824219 303.734375 550.496094 L 280.554688 589.125 C 279.101562 591.546875 276.535156 592.890625 273.902344 592.890625 Z M 273.902344 592.890625 " fill-opacity="1" fill-rule="nonzero"/><g clip-path="url(#d683eaf81e)"><path fill="#ffffff" d="M 306.097656 663.714844 C 304.738281 663.714844 303.363281 663.355469 302.117188 662.609375 C 298.445312 660.40625 297.257812 655.648438 299.460938 651.976562 L 322.636719 613.347656 C 324.839844 609.679688 329.601562 608.484375 333.269531 610.6875 C 336.941406 612.890625 338.128906 617.648438 335.925781 621.320312 L 312.75 659.949219 C 311.292969 662.371094 308.726562 663.714844 306.097656 663.714844 Z M 306.097656 663.714844 " fill-opacity="1" fill-rule="nonzero"/></g><path fill="#ffffff" d="M 488.949219 486.007812 C 487.59375 486.007812 486.21875 485.652344 484.972656 484.902344 C 481.300781 482.703125 480.113281 477.941406 482.3125 474.273438 L 505.492188 435.640625 C 507.695312 431.972656 512.453125 430.78125 516.121094 432.984375 C 519.792969 435.183594 520.984375 439.945312 518.78125 443.613281 L 495.601562 482.246094 C 494.148438 484.667969 491.582031 486.007812 488.949219 486.007812 Z M 488.949219 486.007812 " fill-opacity="1" fill-rule="nonzero"/><path fill="#ffffff" d="M 521.144531 541.382812 C 519.785156 541.382812 518.414062 541.023438 517.164062 540.277344 C 513.496094 538.074219 512.304688 533.316406 514.507812 529.644531 L 537.6875 491.015625 C 539.886719 487.34375 544.644531 486.15625 548.316406 488.355469 C 551.988281 490.558594 553.175781 495.316406 550.972656 498.988281 L 527.792969 537.617188 C 526.34375 540.039062 523.777344 541.382812 521.144531 541.382812 Z M 521.144531 541.382812 " fill-opacity="1" fill-rule="nonzero"/><path fill="#ffffff" d="M 521.144531 541.382812 C 519.785156 541.382812 518.414062 541.023438 517.164062 540.277344 C 513.496094 538.074219 512.304688 533.316406 514.507812 529.644531 L 537.6875 491.015625 C 539.886719 487.34375 544.644531 486.15625 548.316406 488.355469 C 551.988281 490.558594 553.175781 495.316406 550.972656 498.988281 L 527.792969 537.617188 C 526.34375 540.039062 523.777344 541.382812 521.144531 541.382812 Z M 521.144531 541.382812 " fill-opacity="1" fill-rule="nonzero"/><path fill="#ffffff" d="M 553.335938 612.207031 C 551.980469 612.207031 550.605469 611.847656 549.359375 611.101562 C 545.6875 608.898438 544.5 604.140625 546.699219 600.46875 L 569.878906 561.839844 C 572.082031 558.167969 576.839844 556.980469 580.507812 559.179688 C 584.179688 561.382812 585.371094 566.140625 583.167969 569.8125 L 559.988281 608.441406 C 558.535156 610.863281 555.96875 612.207031 553.335938 612.207031 Z M 553.335938 612.207031 " fill-opacity="1" fill-rule="nonzero"/><path fill="#ffffff" d="M 450.320312 592.890625 C 448.960938 592.890625 447.589844 592.53125 446.339844 591.785156 C 442.667969 589.582031 441.480469 584.824219 443.683594 581.152344 L 466.863281 542.523438 C 469.0625 538.851562 473.824219 537.664062 477.492188 539.863281 C 481.160156 542.066406 482.351562 546.824219 480.148438 550.496094 L 456.96875 589.125 C 455.519531 591.546875 452.953125 592.890625 450.320312 592.890625 Z M 450.320312 592.890625 " fill-opacity="1" fill-rule="nonzero"/><path fill="#ffffff" d="M 450.320312 592.890625 C 448.960938 592.890625 447.589844 592.53125 446.339844 591.785156 C 442.667969 589.582031 441.480469 584.824219 443.683594 581.152344 L 466.863281 542.523438 C 469.0625 538.851562 473.824219 537.664062 477.492188 539.863281 C 481.160156 542.066406 482.351562 546.824219 480.148438 550.496094 L 456.96875 589.125 C 455.519531 591.546875 452.953125 592.890625 450.320312 592.890625 Z M 450.320312 592.890625 " fill-opacity="1" fill-rule="nonzero"/><g clip-path="url(#707ebd97ae)"><path fill="#ffffff" d="M 482.511719 663.714844 C 481.15625 663.714844 479.78125 663.355469 478.535156 662.609375 C 474.863281 660.40625 473.675781 655.648438 475.875 651.976562 L 499.054688 613.347656 C 501.257812 609.679688 506.015625 608.488281 509.683594 610.6875 C 513.355469 612.890625 514.542969 617.648438 512.34375 621.320312 L 489.164062 659.949219 C 487.710938 662.371094 485.144531 663.714844 482.511719 663.714844 Z M 482.511719 663.714844 " fill-opacity="1" fill-rule="nonzero"/></g><path fill="#ffffff" d="M 302.242188 494.722656 C 300.1875 494.722656 298.15625 493.90625 296.652344 492.34375 C 294.191406 489.785156 293.785156 485.878906 295.667969 482.867188 L 331.554688 425.453125 L 295.933594 375.585938 C 294.714844 373.878906 294.238281 371.746094 294.617188 369.683594 C 294.996094 367.621094 296.195312 365.796875 297.941406 364.632812 L 413.835938 287.371094 C 416.714844 285.453125 420.519531 285.675781 423.152344 287.914062 C 425.789062 290.15625 426.621094 293.875 425.1875 297.023438 L 388.339844 378.09375 L 416.855469 420.867188 C 418.046875 422.65625 418.441406 424.855469 417.949219 426.945312 C 417.457031 429.035156 416.117188 430.828125 414.253906 431.894531 L 306.085938 493.703125 C 304.882812 494.390625 303.558594 494.722656 302.242188 494.722656 Z M 313.195312 373.089844 L 347.175781 420.660156 C 349 423.214844 349.105469 426.613281 347.441406 429.273438 L 325.128906 464.96875 L 399.355469 422.554688 L 373.054688 383.105469 C 371.570312 380.875 371.339844 378.039062 372.449219 375.601562 L 399.847656 315.320312 Z M 313.195312 373.089844 " fill-opacity="1" fill-rule="nonzero"/></svg>