<!DOCTYPE svg PUBLIC "-//W3C//DTD SVG 1.1//EN" "http://www.w3.org/Graphics/SVG/1.1/DTD/svg11.dtd">

<!-- Uploaded to: SVG Repo, www.svgrepo.com, Transformed by: SVG Repo Mixer Tools -->
<svg fill="#ffffff" height="256px" width="256px" version="1.1" id="Layer_1" xmlns="http://www.w3.org/2000/svg" xmlns:xlink="http://www.w3.org/1999/xlink" viewBox="0 0 512 512" xml:space="preserve" stroke="#ffffff">

<g id="SVGRepo_bgCarrier" stroke-width="0"/>

<g id="SVGRepo_tracerCarrier" stroke-linecap="round" stroke-linejoin="round"/>

<g id="SVGRepo_iconCarrier"> <g> <g> <path d="M479.172,322.784c-6.146,0-11.131,4.983-11.131,11.131c0,18.412-14.98,33.392-33.392,33.392 c-18.412,0-33.392-14.98-33.392-33.392c0-6.147-4.984-11.131-11.131-11.131s-11.131,4.983-11.131,11.131 c0,18.412-14.98,33.392-33.392,33.392c-18.412,0-33.392-14.98-33.392-33.392c0-6.147-4.984-11.131-11.131-11.131 s-11.131,4.983-11.131,11.131c0,18.412-14.98,33.392-33.392,33.392c-18.412,0-33.392-14.98-33.392-33.392 c0-6.147-4.983-11.131-11.131-11.131s-11.131,4.983-11.131,11.131c0,18.412-14.98,33.392-33.392,33.392 c-18.412,0-33.392-14.98-33.392-33.392c0-6.147-4.983-11.131-11.131-11.131c-6.147,0-11.131,4.983-11.131,11.131 c0,18.412-14.98,33.392-33.392,33.392c-18.412,0-33.392-14.98-33.392-33.392c0-6.147-4.983-11.131-11.131-11.131 c-6.147,0-11.131,4.983-11.131,11.131c0,30.687,24.966,55.653,55.653,55.653c18.186,0,34.36-8.769,44.523-22.3 c10.162,13.53,26.336,22.3,44.523,22.3c18.186,0,34.36-8.769,44.523-22.3c10.162,13.53,26.336,22.3,44.523,22.3 c18.186,0,34.36-8.769,44.523-22.3c10.162,13.53,26.336,22.3,44.523,22.3c18.186,0,34.36-8.769,44.523-22.3 c10.162,13.53,26.336,22.3,44.523,22.3c30.687,0,55.653-24.966,55.653-55.653C490.302,327.767,485.319,322.784,479.172,322.784z"/> </g> </g> <g> <g> <path d="M434.093,456.352c-18.412,0-33.392-14.98-33.392-33.392c0-6.147-4.984-11.131-11.131-11.131s-11.131,4.983-11.131,11.131 c0,18.412-14.98,33.392-33.392,33.392c-18.412,0-33.392-14.98-33.392-33.392c0-6.147-4.984-11.131-11.131-11.131 s-11.131,4.983-11.131,11.131c0,18.412-14.98,33.392-33.392,33.392c-18.412,0-33.392-14.98-33.392-33.392 c0-6.147-4.983-11.131-11.131-11.131s-11.131,4.983-11.131,11.131c0,18.412-14.98,33.392-33.392,33.392 c-18.412,0-33.392-14.98-33.392-33.392c0-6.147-4.983-11.131-11.131-11.131c-6.147,0-11.131,4.983-11.131,11.131 c0,18.412-14.98,33.392-33.392,33.392c-6.147,0-11.131,4.983-11.131,11.131s4.983,11.131,11.131,11.131 c18.186,0,34.36-8.769,44.523-22.3c10.162,13.53,26.336,22.3,44.523,22.3c18.186,0,34.36-8.769,44.523-22.3 c10.162,13.53,26.336,22.3,44.523,22.3c18.186,0,34.36-8.769,44.523-22.3c10.162,13.53,26.336,22.3,44.523,22.3 c18.186,0,34.36-8.769,44.523-22.3c10.162,13.53,26.336,22.3,44.523,22.3c6.146,0,11.131-4.983,11.131-11.131 S440.24,456.352,434.093,456.352z"/> </g> </g> <g> <g> <path d="M506.443,273.797c-8.926-5.166-14.913-14.182-16.353-24.228c0.13-1.551,0.213-3.115,0.213-4.699 c0-6.147-4.984-11.131-11.131-11.131c-0.094,0-0.185,0.011-0.278,0.014c-0.094-0.002-0.185-0.014-0.278-0.014 c-6.146,0-11.131,4.983-11.131,11.131c0,1.569,0.09,3.127,0.223,4.675c-2.282,16.206-16.233,28.717-33.058,28.717 c-18.412,0-33.392-14.98-33.392-33.392c0-6.147-4.984-11.131-11.131-11.131s-11.131,4.983-11.131,11.131 c0,18.412-14.98,33.392-33.392,33.392c-18.412,0-33.392-14.98-33.392-33.392c0-6.147-4.984-11.131-11.131-11.131 s-11.131,4.983-11.131,11.131c0,18.412-14.98,33.392-33.392,33.392c-18.412,0-33.392-14.98-33.392-33.392 c0-6.147-4.983-11.131-11.131-11.131s-11.131,4.983-11.131,11.131c0,18.412-14.98,33.392-33.392,33.392 c-18.412,0-33.392-14.98-33.392-33.392c0-6.147-4.983-11.131-11.131-11.131c-6.147,0-11.131,4.983-11.131,11.131 c0,18.412-14.98,33.392-33.392,33.392c-18.412,0-33.392-14.98-33.392-33.392c0-6.147-4.983-11.131-11.131-11.131 c-0.095,0-0.186,0.011-0.281,0.014c-0.094-0.002-0.186-0.014-0.281-0.014c-6.147,0-11.131,4.983-11.131,11.131 c0,11.882-6.398,22.966-16.697,28.927c-5.32,3.08-7.137,9.888-4.058,15.209c2.064,3.565,5.801,5.556,9.644,5.556 c1.892,0,3.81-0.483,5.565-1.499c6.743-3.904,12.463-9.139,16.944-15.245c10.142,13.758,26.451,22.703,44.815,22.703 c18.186,0,34.36-8.769,44.523-22.3c10.162,13.53,26.336,22.3,44.523,22.3c18.186,0,34.36-8.769,44.523-22.3 c10.162,13.53,26.336,22.3,44.523,22.3c18.186,0,34.36-8.769,44.523-22.3c10.162,13.53,26.336,22.3,44.523,22.3 c18.186,0,34.36-8.769,44.523-22.3c10.162,13.53,26.336,22.3,44.523,22.3c18.023,0,34.064-8.617,44.241-21.942 c4.397,5.784,9.936,10.741,16.402,14.483c1.755,1.016,3.673,1.499,5.564,1.499c3.842,0,7.582-1.992,9.645-5.556 C513.581,283.685,511.765,276.876,506.443,273.797z"/> </g> </g> <g> <g> <path d="M334.422,134.027c-5.897-1.753-12.089,1.601-13.844,7.493c-8.358,28.083-34.683,47.696-64.019,47.696 c-36.825,0-66.784-29.959-66.784-66.784s29.959-66.784,66.784-66.784c21.822,0,42.317,10.702,54.82,28.629 c3.517,5.042,10.456,6.278,15.497,2.76c5.042-3.516,6.279-10.455,2.762-15.497c-16.665-23.891-43.984-38.154-73.078-38.154 c-49.1,0-89.045,39.946-89.045,89.045s39.946,89.045,89.045,89.045c19.57,0,38.141-6.229,53.707-18.014 c15.05-11.396,26.289-27.587,31.65-45.593C343.668,141.979,340.313,135.78,334.422,134.027z"/> </g> </g> <g> <g> <path d="M344.668,109.502c-0.05-0.42-0.127-0.864-0.224-1.276c-1.409-5.985-7.409-9.694-13.383-8.286 c-5.751,1.352-9.4,6.935-8.43,12.677c0.888,5.399,5.572,9.316,10.968,9.316c0.434,0,0.873-0.026,1.315-0.077 C341.018,121.138,345.386,115.607,344.668,109.502z"/> </g> </g> </g>

</svg>