<!DOCTYPE svg PUBLIC "-//W3C//DTD SVG 1.1//EN" "http://www.w3.org/Graphics/SVG/1.1/DTD/svg11.dtd">
<!-- Uploaded to: SVG Repo, www.svgrepo.com, Transformed by: SVG Repo Mixer Tools -->
<svg fill="#ffffff" height="224px" width="224px" version="1.1" id="Layer_1" xmlns="http://www.w3.org/2000/svg" xmlns:xlink="http://www.w3.org/1999/xlink" viewBox="0 0 512 512" xml:space="preserve" stroke="#ffffff">
<g id="SVGRepo_bgCarrier" stroke-width="0"/>
<g id="SVGRepo_tracerCarrier" stroke-linecap="round" stroke-linejoin="round"/>
<g id="SVGRepo_iconCarrier"> <g> <g> <path d="M428.018,203.202c2.088-9.162,3.14-18.553,3.14-28.044c0-69.342-56.412-125.754-125.754-125.754 c-56.053,0-105.517,37.724-120.86,90.895c-4.57-0.711-9.219-1.07-13.877-1.07c-46.64,0-85.088,35.728-89.421,81.25 C35.728,224.808,0,263.254,0,309.894c0,31,15.667,59.414,41.912,76.002c1.491,0.939,3.149,1.386,4.789,1.386 c2.982,0,5.895-1.483,7.605-4.184c2.649-4.195,1.395-9.746-2.798-12.395c-21-13.274-33.544-36.002-33.544-60.809 c0-39.623,32.237-71.859,71.86-71.859c4.965,0,8.982-4.022,8.982-8.982c0-39.623,32.237-71.86,71.86-71.86 c6.175,0,12.316,0.785,18.228,2.329c2.351,0.623,4.895,0.25,6.991-1.044c2.088-1.294,3.561-3.381,4.07-5.781 c10.474-49.443,54.825-85.329,105.447-85.329c59.439,0,107.789,48.355,107.789,107.789c0,11.351-1.754,22.531-5.211,33.228 c-0.868,2.68-0.43,5.61,1.184,7.917c1.614,2.303,4.219,3.719,7.035,3.824c43.64,1.588,77.833,37.076,77.833,80.784 c0,4.967,4.018,8.982,8.982,8.982c4.965,0,8.982-4.015,8.982-8.982C512,251.277,475.921,210.316,428.018,203.202z"/> </g> </g> <g> <g> <path d="M208.07,381.877l-38.184-6.366l43.526-50.792c3.237-3.761,2.798-9.428-0.974-12.656c-3.754-3.228-9.43-2.807-12.658,0.974 l-53.895,62.877c-2.114,2.454-2.737,5.859-1.623,8.91c1.105,3.046,3.763,5.257,6.965,5.792l36.675,6.112l-50.535,50.535 c-3.509,3.509-3.509,9.195,0,12.704c1.755,1.752,4.053,2.629,6.351,2.629c2.298,0,4.597-0.877,6.351-2.629l62.877-62.877 c2.377-2.377,3.228-5.886,2.202-9.096C214.123,384.789,211.395,382.431,208.07,381.877z"/> </g> </g> <g> <g> <path d="M360.772,292.052l-38.184-6.366l43.526-50.786c3.237-3.768,2.798-9.439-0.974-12.667 c-3.754-3.215-9.43-2.789-12.658,0.974l-53.895,62.883c-2.114,2.454-2.737,5.859-1.623,8.91c1.105,3.046,3.763,5.257,6.965,5.792 l36.675,6.112l-50.535,50.535c-3.509,3.509-3.509,9.195,0,12.704c1.754,1.752,4.053,2.629,6.351,2.629 c2.298,0,4.597-0.877,6.351-2.629l62.877-62.877c2.377-2.377,3.228-5.886,2.202-9.096 C366.825,294.964,364.097,292.607,360.772,292.052z"/> </g> </g> </g>
</svg>