<!DOCTYPE svg PUBLIC "-//W3C//DTD SVG 1.1//EN" "http://www.w3.org/Graphics/SVG/1.1/DTD/svg11.dtd">
<!-- Uploaded to: SVG Repo, www.svgrepo.com, Transformed by: SVG Repo Mixer Tools -->
<svg fill="#ffffff" height="256px" width="256px" version="1.1" id="Layer_1" xmlns="http://www.w3.org/2000/svg" xmlns:xlink="http://www.w3.org/1999/xlink" viewBox="0 0 192.815 192.815" xml:space="preserve" stroke="#ffffff">
<g id="SVGRepo_bgCarrier" stroke-width="0"/>
<g id="SVGRepo_tracerCarrier" stroke-linecap="round" stroke-linejoin="round"/>
<g id="SVGRepo_iconCarrier"> <g> <g> <g> <path d="M91.628,94.5h10.466c21.239,0,38.517-17.271,38.517-38.5V21c0-1.933-1.566-3.5-3.5-3.5h-80.5c-1.934,0-3.5,1.567-3.5,3.5 v35C53.111,77.229,70.389,94.5,91.628,94.5z M60.111,24.5h73.5V56c0,17.368-14.14,31.5-31.517,31.5H91.628 c-17.376,0-31.517-14.132-31.517-31.5V24.5z"/> <path d="M75.861,98c-6.754,0-12.25,5.496-12.25,12.25c0,6.754,5.496,12.25,12.25,12.25c6.754,0,12.25-5.496,12.25-12.25 C88.111,103.496,82.615,98,75.861,98z M75.861,115.5c-2.895,0-5.25-2.355-5.25-5.25s2.355-5.25,5.25-5.25 c2.895,0,5.25,2.355,5.25,5.25S78.756,115.5,75.861,115.5z"/> <path d="M117.861,98c-6.754,0-12.25,5.496-12.25,12.25c0,6.754,5.496,12.25,12.25,12.25c6.754,0,12.25-5.496,12.25-12.25 C130.111,103.496,124.615,98,117.861,98z M117.861,115.5c-2.895,0-5.25-2.355-5.25-5.25s2.355-5.25,5.25-5.25 c2.895,0,5.25,2.355,5.25,5.25S120.756,115.5,117.861,115.5z"/> <path d="M182.118,187.523l-40.794-68.466c8.292-9.998,13.286-22.824,13.286-36.797V17.798C154.611,7.984,146.627,0,136.814,0 H56.908c-9.812,0-17.797,7.984-17.797,17.798V82.26c0,13.672,4.801,26.23,12.774,36.132L18.159,175h-0.048v0.08l-7.414,12.444 c-0.988,1.659-0.444,3.808,1.217,4.797c0.561,0.335,1.179,0.494,1.787,0.494c1.193,0,2.355-0.61,3.011-1.709L22.138,182h148.54 l5.425,9.106c0.656,1.099,1.818,1.709,3.011,1.709c0.608,0,1.227-0.159,1.787-0.494 C182.563,191.331,183.107,189.183,182.118,187.523z M46.111,82.26V17.798C46.111,11.843,50.954,7,56.909,7h79.905 c5.954,0,10.798,4.843,10.798,10.798V82.26c0,12.796-4.8,24.467-12.645,33.402c-0.439,0.303-0.771,0.687-1.023,1.125 C124.672,126.734,111.5,133,96.861,133C68.878,133,46.111,110.238,46.111,82.26z M56.826,123.778 C67.217,133.799,81.319,140,96.861,140c15.256,0,29.111-5.989,39.446-15.686l15.602,26.186H40.905L56.826,123.778z M26.309,175 l10.426-17.5h119.346l10.427,17.5H26.309z"/> <path d="M80.086,33.974c1.367-1.367,1.367-3.582,0-4.949c-1.367-1.367-3.582-1.367-4.949,0l-10.5,10.5 c-1.367,1.367-1.367,3.582,0,4.949c0.684,0.684,1.579,1.026,2.475,1.026s1.791-0.342,2.475-1.026L80.086,33.974z"/> </g> </g> </g> </g>
</svg>