<svg xmlns="http://www.w3.org/2000/svg" xmlns:xlink="http://www.w3.org/1999/xlink" width="683" zoomAndPan="magnify" viewBox="0 0 512.25 89.999999" height="120" preserveAspectRatio="xMidYMid meet" version="1.0"><defs><g/><clipPath id="e5e19b5c25"><path d="M 227.058594 59 L 283.972656 59 L 283.972656 65.546875 L 227.058594 65.546875 Z M 227.058594 59 " clip-rule="nonzero"/></clipPath><clipPath id="ab37c85338"><path d="M 227.058594 50 L 283.972656 50 L 283.972656 57 L 227.058594 57 Z M 227.058594 50 " clip-rule="nonzero"/></clipPath><clipPath id="86d4bbe47b"><path d="M 227.058594 41 L 283.972656 41 L 283.972656 48 L 227.058594 48 Z M 227.058594 41 " clip-rule="nonzero"/></clipPath><clipPath id="3dd7227681"><path d="M 227.058594 31.84375 L 283.972656 31.84375 L 283.972656 38 L 227.058594 38 Z M 227.058594 31.84375 " clip-rule="nonzero"/></clipPath></defs><g fill="#fafafa" fill-opacity="1"><g transform="translate(187.255104, 65.953379)"><g><path d="M 0.65625 0 L 12.625 0 C 26.128906 0 33.34375 -7.269531 33.34375 -19.1875 C 33.34375 -29.84375 27.605469 -37.660156 13.554688 -37.660156 L 0.65625 -37.660156 L 0.65625 -37.058594 L 3.390625 -37.058594 C 4.425781 -37.058594 4.644531 -36.730469 4.644531 -35.039062 L 4.644531 -2.625 C 4.644531 -0.929688 4.425781 -0.601562 3.390625 -0.601562 L 0.65625 -0.601562 Z M 7.871094 -0.601562 C 6.832031 -0.601562 6.613281 -0.929688 6.613281 -2.625 L 6.613281 -35.039062 C 6.613281 -36.570312 6.777344 -36.949219 7.542969 -37.058594 L 12.570312 -37.058594 C 26.128906 -37.058594 31.375 -29.296875 31.375 -18.695312 C 31.375 -7.160156 25.035156 -0.601562 13.0625 -0.601562 Z M 7.871094 -0.601562 "/></g></g></g><g fill="#fafafa" fill-opacity="1"><g transform="translate(222.902516, 65.953379)"><g/></g></g><g fill="#fafafa" fill-opacity="1"><g transform="translate(236.018866, 65.953379)"><g/></g></g><g fill="#fafafa" fill-opacity="1"><g transform="translate(249.135216, 65.953379)"><g/></g></g><g fill="#fafafa" fill-opacity="1"><g transform="translate(262.251565, 65.953379)"><g/></g></g><g fill="#fafafa" fill-opacity="1"><g transform="translate(275.367916, 65.953379)"><g/></g></g><g fill="#fafafa" fill-opacity="1"><g transform="translate(288.485527, 65.953379)"><g><path d="M 16.179688 0 L 17.765625 0 L 28.425781 -36.515625 L 28.425781 -2.625 C 28.425781 -0.929688 28.207031 -0.601562 27.167969 -0.601562 L 24.433594 -0.601562 L 24.433594 0 L 34.382812 0 L 34.382812 -0.601562 L 31.648438 -0.601562 C 30.609375 -0.601562 30.390625 -0.929688 30.390625 -2.625 L 30.390625 -35.039062 C 30.390625 -36.730469 30.609375 -37.058594 31.648438 -37.058594 L 34.382812 -37.058594 L 34.382812 -37.660156 L 27.824219 -37.660156 L 17.546875 -2.570312 L 7.488281 -37.660156 L 0.65625 -37.660156 L 0.65625 -37.058594 L 3.390625 -37.058594 C 4.425781 -37.058594 4.644531 -36.730469 4.644531 -35.039062 L 4.644531 -2.625 C 4.644531 -0.929688 4.425781 -0.601562 3.390625 -0.601562 L 0.65625 -0.601562 L 0.65625 0 L 9.730469 0 L 9.730469 -0.601562 L 6.996094 -0.601562 C 5.957031 -0.601562 5.738281 -0.929688 5.738281 -2.625 L 5.738281 -36.515625 Z M 16.179688 0 "/></g></g></g><g clip-path="url(#e5e19b5c25)"><path fill="#ffffff" d="M 310.265625 65.546875 C 307.070312 65.546875 305.472656 64.277344 303.921875 63.042969 C 302.484375 61.902344 301.125 60.820312 298.375 60.820312 C 295.625 60.820312 294.269531 61.902344 292.828125 63.042969 C 291.285156 64.273438 289.679688 65.546875 286.488281 65.546875 C 283.292969 65.546875 281.695312 64.277344 280.148438 63.042969 C 278.710938 61.902344 277.351562 60.820312 274.601562 60.820312 C 271.851562 60.820312 270.496094 61.902344 269.054688 63.042969 C 267.511719 64.273438 265.910156 65.546875 262.71875 65.546875 C 259.523438 65.546875 257.925781 64.277344 256.378906 63.042969 C 254.941406 61.902344 253.582031 60.820312 250.832031 60.820312 C 248.085938 60.820312 246.726562 61.902344 245.289062 63.042969 C 243.746094 64.273438 242.144531 65.546875 238.953125 65.546875 C 235.757812 65.546875 234.160156 64.277344 232.613281 63.042969 C 231.175781 61.902344 229.816406 60.820312 227.070312 60.820312 L 227.070312 59.554688 C 230.265625 59.554688 231.863281 60.824219 233.410156 62.058594 C 234.847656 63.199219 236.207031 64.28125 238.953125 64.28125 C 241.699219 64.28125 243.058594 63.199219 244.496094 62.058594 C 246.039062 60.828125 247.640625 59.554688 250.832031 59.554688 C 254.027344 59.554688 255.625 60.824219 257.171875 62.058594 C 258.609375 63.199219 259.96875 64.28125 262.71875 64.28125 C 265.46875 64.28125 266.824219 63.199219 268.265625 62.058594 C 269.808594 60.828125 271.410156 59.554688 274.601562 59.554688 C 277.796875 59.554688 279.394531 60.824219 280.941406 62.058594 C 282.378906 63.199219 283.738281 64.28125 286.488281 64.28125 C 289.238281 64.28125 290.59375 63.199219 292.035156 62.058594 C 293.578125 60.828125 295.179688 59.554688 298.371094 59.554688 C 301.566406 59.554688 303.164062 60.824219 304.714844 62.058594 C 306.152344 63.199219 307.511719 64.28125 310.261719 64.28125 C 313.011719 64.28125 314.371094 63.199219 315.808594 62.058594 C 317.355469 60.828125 318.957031 59.554688 322.148438 59.554688 L 322.148438 60.820312 C 319.398438 60.820312 318.042969 61.902344 316.601562 63.042969 C 315.058594 64.277344 313.457031 65.546875 310.265625 65.546875 Z M 310.265625 65.546875 " fill-opacity="1" fill-rule="nonzero"/></g><g clip-path="url(#ab37c85338)"><path fill="#ffffff" d="M 310.265625 56.308594 C 307.070312 56.308594 305.472656 55.039062 303.921875 53.808594 C 302.484375 52.664062 301.125 51.585938 298.375 51.585938 C 295.625 51.585938 294.269531 52.664062 292.828125 53.808594 C 291.285156 55.035156 289.679688 56.308594 286.488281 56.308594 C 283.292969 56.308594 281.695312 55.039062 280.148438 53.808594 C 278.710938 52.664062 277.351562 51.585938 274.601562 51.585938 C 271.851562 51.585938 270.496094 52.664062 269.054688 53.808594 C 267.511719 55.035156 265.910156 56.308594 262.71875 56.308594 C 259.523438 56.308594 257.925781 55.039062 256.378906 53.808594 C 254.941406 52.664062 253.582031 51.585938 250.832031 51.585938 C 248.085938 51.585938 246.726562 52.664062 245.289062 53.808594 C 243.746094 55.035156 242.144531 56.308594 238.953125 56.308594 C 235.757812 56.308594 234.160156 55.039062 232.613281 53.808594 C 231.175781 52.664062 229.816406 51.585938 227.070312 51.585938 L 227.070312 50.320312 C 230.265625 50.320312 231.863281 51.589844 233.410156 52.820312 C 234.847656 53.960938 236.207031 55.042969 238.953125 55.042969 C 241.699219 55.042969 243.058594 53.960938 244.496094 52.820312 C 246.039062 51.59375 247.640625 50.320312 250.832031 50.320312 C 254.027344 50.320312 255.625 51.589844 257.171875 52.820312 C 258.609375 53.960938 259.96875 55.042969 262.71875 55.042969 C 265.46875 55.042969 266.824219 53.960938 268.265625 52.820312 C 269.808594 51.59375 271.410156 50.320312 274.601562 50.320312 C 277.796875 50.320312 279.394531 51.589844 280.941406 52.820312 C 282.378906 53.960938 283.738281 55.042969 286.488281 55.042969 C 289.238281 55.042969 290.59375 53.960938 292.035156 52.820312 C 293.578125 51.59375 295.179688 50.320312 298.371094 50.320312 C 301.566406 50.320312 303.164062 51.589844 304.714844 52.820312 C 306.152344 53.960938 307.511719 55.042969 310.261719 55.042969 C 313.011719 55.042969 314.371094 53.960938 315.808594 52.820312 C 317.355469 51.59375 318.957031 50.320312 322.148438 50.320312 L 322.148438 51.585938 C 319.398438 51.585938 318.042969 52.664062 316.601562 53.808594 C 315.058594 55.039062 313.457031 56.308594 310.265625 56.308594 Z M 310.265625 56.308594 " fill-opacity="1" fill-rule="nonzero"/></g><g clip-path="url(#86d4bbe47b)"><path fill="#ffffff" d="M 310.265625 47.074219 C 307.070312 47.074219 305.472656 45.804688 303.921875 44.570312 C 302.484375 43.429688 301.125 42.347656 298.375 42.347656 C 295.625 42.347656 294.269531 43.429688 292.828125 44.570312 C 291.285156 45.800781 289.679688 47.074219 286.488281 47.074219 C 283.292969 47.074219 281.695312 45.804688 280.148438 44.570312 C 278.710938 43.429688 277.351562 42.347656 274.601562 42.347656 C 271.851562 42.347656 270.496094 43.429688 269.054688 44.570312 C 267.511719 45.800781 265.910156 47.074219 262.71875 47.074219 C 259.523438 47.074219 257.925781 45.804688 256.378906 44.570312 C 254.941406 43.429688 253.582031 42.347656 250.832031 42.347656 C 248.085938 42.347656 246.726562 43.429688 245.289062 44.570312 C 243.746094 45.800781 242.144531 47.074219 238.953125 47.074219 C 235.757812 47.074219 234.160156 45.804688 232.613281 44.570312 C 231.175781 43.429688 229.816406 42.347656 227.070312 42.347656 L 227.070312 41.082031 C 230.265625 41.082031 231.863281 42.351562 233.410156 43.582031 C 234.847656 44.726562 236.207031 45.808594 238.953125 45.808594 C 241.699219 45.808594 243.058594 44.726562 244.496094 43.582031 C 246.039062 42.355469 247.640625 41.082031 250.832031 41.082031 C 254.027344 41.082031 255.625 42.351562 257.171875 43.582031 C 258.609375 44.726562 259.96875 45.808594 262.71875 45.808594 C 265.46875 45.808594 266.824219 44.726562 268.265625 43.582031 C 269.808594 42.355469 271.410156 41.082031 274.601562 41.082031 C 277.796875 41.082031 279.394531 42.351562 280.941406 43.582031 C 282.378906 44.726562 283.738281 45.808594 286.488281 45.808594 C 289.238281 45.808594 290.59375 44.726562 292.035156 43.582031 C 293.578125 42.355469 295.183594 41.082031 298.371094 41.082031 C 301.566406 41.082031 303.164062 42.351562 304.714844 43.582031 C 306.152344 44.726562 307.511719 45.808594 310.261719 45.808594 C 313.011719 45.808594 314.371094 44.726562 315.808594 43.582031 C 317.355469 42.355469 318.957031 41.082031 322.148438 41.082031 L 322.148438 42.347656 C 319.398438 42.347656 318.042969 43.429688 316.601562 44.570312 C 315.058594 45.804688 313.457031 47.074219 310.265625 47.074219 Z M 310.265625 47.074219 " fill-opacity="1" fill-rule="nonzero"/></g><g clip-path="url(#3dd7227681)"><path fill="#ffffff" d="M 310.265625 37.835938 C 307.070312 37.835938 305.472656 36.566406 303.921875 35.335938 C 302.484375 34.191406 301.125 33.113281 298.375 33.113281 C 295.625 33.113281 294.269531 34.191406 292.828125 35.335938 C 291.285156 36.5625 289.679688 37.835938 286.488281 37.835938 C 283.292969 37.835938 281.695312 36.566406 280.148438 35.335938 C 278.710938 34.191406 277.351562 33.113281 274.601562 33.113281 C 271.851562 33.113281 270.5 34.191406 269.058594 35.335938 C 267.515625 36.5625 265.914062 37.835938 262.722656 37.835938 C 259.527344 37.835938 257.929688 36.566406 256.382812 35.335938 C 254.945312 34.191406 253.585938 33.113281 250.835938 33.113281 C 248.089844 33.113281 246.730469 34.191406 245.292969 35.335938 C 243.75 36.5625 242.148438 37.835938 238.957031 37.835938 C 235.761719 37.835938 234.164062 36.566406 232.617188 35.335938 C 231.179688 34.191406 229.820312 33.113281 227.074219 33.113281 L 227.074219 31.84375 C 230.269531 31.84375 231.867188 33.117188 233.414062 34.347656 C 234.851562 35.488281 236.210938 36.570312 238.957031 36.570312 C 241.703125 36.570312 243.0625 35.488281 244.5 34.347656 C 246.042969 33.121094 247.644531 31.84375 250.835938 31.84375 C 254.03125 31.84375 255.628906 33.117188 257.175781 34.347656 C 258.613281 35.488281 259.972656 36.570312 262.722656 36.570312 C 265.472656 36.570312 266.828125 35.488281 268.269531 34.347656 C 269.8125 33.121094 271.414062 31.84375 274.605469 31.84375 C 277.800781 31.84375 279.398438 33.117188 280.945312 34.347656 C 282.382812 35.488281 283.742188 36.570312 286.492188 36.570312 C 289.242188 36.570312 290.597656 35.488281 292.039062 34.347656 C 293.582031 33.121094 295.183594 31.84375 298.375 31.84375 C 301.570312 31.84375 303.167969 33.117188 304.71875 34.347656 C 306.15625 35.488281 307.515625 36.570312 310.265625 36.570312 C 313.015625 36.570312 314.375 35.488281 315.8125 34.347656 C 317.359375 33.121094 318.960938 31.84375 322.152344 31.84375 L 322.152344 33.113281 C 319.402344 33.113281 318.046875 34.191406 316.605469 35.335938 C 315.058594 36.5625 313.457031 37.835938 310.265625 37.835938 Z M 310.265625 37.835938 " fill-opacity="1" fill-rule="nonzero"/></g><g fill="#4b3230" fill-opacity="1"><g transform="translate(236.997221, 79.884678)"><g><path d="M 3.0625 -6.21875 L 1.875 -6.21875 L 1.875 0.3125 L 3.0625 0.3125 L 3.0625 1.1875 L 0.875 1.1875 L 0.875 -7.109375 L 3.0625 -7.109375 Z M 3.0625 -6.21875 "/></g></g></g><g fill="#4b3230" fill-opacity="1"><g transform="translate(241.257762, 79.884678)"><g><path d="M 5.671875 -7.109375 L 5.671875 0 L 4.5625 0 L 4.5625 -0.875 C 4.1875 -0.257812 3.59375 0.046875 2.78125 0.046875 C 2.050781 0.046875 1.457031 -0.191406 1 -0.671875 C 0.550781 -1.148438 0.328125 -1.78125 0.328125 -2.5625 C 0.328125 -3.332031 0.550781 -3.953125 1 -4.421875 C 1.445312 -4.898438 2.035156 -5.140625 2.765625 -5.140625 C 3.578125 -5.140625 4.175781 -4.832031 4.5625 -4.21875 L 4.5625 -7.109375 Z M 1.875 -1.328125 C 2.164062 -1.023438 2.539062 -0.875 3 -0.875 C 3.46875 -0.875 3.84375 -1.023438 4.125 -1.328125 C 4.414062 -1.640625 4.5625 -2.039062 4.5625 -2.53125 C 4.5625 -3.019531 4.414062 -3.421875 4.125 -3.734375 C 3.84375 -4.046875 3.46875 -4.203125 3 -4.203125 C 2.539062 -4.203125 2.164062 -4.046875 1.875 -3.734375 C 1.59375 -3.421875 1.445312 -3.019531 1.4375 -2.53125 C 1.445312 -2.039062 1.59375 -1.640625 1.875 -1.328125 Z M 1.875 -1.328125 "/></g></g></g><g fill="#4b3230" fill-opacity="1"><g transform="translate(248.744823, 79.884678)"><g><path d="M 2.90625 -5.140625 C 3.78125 -5.140625 4.414062 -4.875 4.8125 -4.34375 C 5.207031 -3.8125 5.367188 -3.070312 5.296875 -2.125 L 1.453125 -2.125 C 1.535156 -1.726562 1.71875 -1.414062 2 -1.1875 C 2.28125 -0.96875 2.625 -0.859375 3.03125 -0.859375 C 3.601562 -0.859375 4.082031 -1.054688 4.46875 -1.453125 L 5.046875 -0.828125 C 4.523438 -0.253906 3.820312 0.03125 2.9375 0.03125 C 2.15625 0.03125 1.523438 -0.203125 1.046875 -0.671875 C 0.566406 -1.148438 0.328125 -1.769531 0.328125 -2.53125 C 0.328125 -3.300781 0.566406 -3.925781 1.046875 -4.40625 C 1.523438 -4.882812 2.144531 -5.128906 2.90625 -5.140625 Z M 1.421875 -2.9375 L 4.34375 -2.9375 C 4.320312 -3.34375 4.179688 -3.660156 3.921875 -3.890625 C 3.671875 -4.128906 3.335938 -4.25 2.921875 -4.25 C 2.515625 -4.25 2.175781 -4.128906 1.90625 -3.890625 C 1.644531 -3.660156 1.484375 -3.34375 1.421875 -2.9375 Z M 1.421875 -2.9375 "/></g></g></g><g fill="#4b3230" fill-opacity="1"><g transform="translate(255.331904, 79.884678)"><g><path d="M 0.609375 -3.84375 C 0.722656 -3.957031 0.863281 -4.015625 1.03125 -4.015625 C 1.207031 -4.015625 1.351562 -3.957031 1.46875 -3.84375 C 1.582031 -3.726562 1.640625 -3.582031 1.640625 -3.40625 C 1.640625 -3.21875 1.582031 -3.0625 1.46875 -2.9375 C 1.351562 -2.820312 1.207031 -2.765625 1.03125 -2.765625 C 0.863281 -2.765625 0.722656 -2.820312 0.609375 -2.9375 C 0.492188 -3.0625 0.4375 -3.21875 0.4375 -3.40625 C 0.4375 -3.582031 0.492188 -3.726562 0.609375 -3.84375 Z M 0.609375 -1 C 0.722656 -1.113281 0.863281 -1.171875 1.03125 -1.171875 C 1.207031 -1.171875 1.351562 -1.113281 1.46875 -1 C 1.582031 -0.882812 1.640625 -0.738281 1.640625 -0.5625 C 1.640625 -0.375 1.582031 -0.21875 1.46875 -0.09375 C 1.351562 0.03125 1.207031 0.09375 1.03125 0.09375 C 0.863281 0.09375 0.722656 0.03125 0.609375 -0.09375 C 0.492188 -0.21875 0.4375 -0.375 0.4375 -0.5625 C 0.4375 -0.738281 0.492188 -0.882812 0.609375 -1 Z M 0.609375 -1 "/></g></g></g><g fill="#4b3230" fill-opacity="1"><g transform="translate(258.319071, 79.884678)"><g><path d="M 7.46875 -5.140625 C 8.039062 -5.140625 8.492188 -4.960938 8.828125 -4.609375 C 9.160156 -4.253906 9.328125 -3.773438 9.328125 -3.171875 L 9.328125 0 L 8.234375 0 L 8.234375 -2.859375 C 8.234375 -3.253906 8.125 -3.5625 7.90625 -3.78125 C 7.695312 -4 7.398438 -4.109375 7.015625 -4.109375 C 6.585938 -4.097656 6.25 -3.941406 6 -3.640625 C 5.75 -3.347656 5.625 -2.972656 5.625 -2.515625 L 5.625 0 L 4.515625 0 L 4.515625 -2.859375 C 4.515625 -3.253906 4.40625 -3.5625 4.1875 -3.78125 C 3.976562 -4 3.691406 -4.109375 3.328125 -4.109375 C 2.890625 -4.097656 2.539062 -3.941406 2.28125 -3.640625 C 2.03125 -3.347656 1.90625 -2.972656 1.90625 -2.515625 L 1.90625 0 L 0.8125 0 L 0.8125 -5.09375 L 1.90625 -5.09375 L 1.90625 -4.109375 C 2.238281 -4.796875 2.851562 -5.140625 3.75 -5.140625 C 4.207031 -5.140625 4.585938 -5.03125 4.890625 -4.8125 C 5.191406 -4.601562 5.40625 -4.300781 5.53125 -3.90625 C 5.84375 -4.726562 6.488281 -5.140625 7.46875 -5.140625 Z M 7.46875 -5.140625 "/></g></g></g><g fill="#4b3230" fill-opacity="1"><g transform="translate(269.262442, 79.884678)"><g><path d="M 3.65625 -7.109375 L 3.65625 1.1875 L 1.46875 1.1875 L 1.46875 0.3125 L 2.65625 0.3125 L 2.65625 -6.21875 L 1.46875 -6.21875 L 1.46875 -7.109375 Z M 3.65625 -7.109375 "/></g></g></g></svg>