<svg xmlns="http://www.w3.org/2000/svg" xmlns:xlink="http://www.w3.org/1999/xlink" width="900" zoomAndPan="magnify" viewBox="0 0 751.5 131.249995" height="250" preserveAspectRatio="xMidYMid meet" version="1.0"><defs><g/><clipPath id="3f4e5c4e4b"><path d="M 333.910156 86 L 417.136719 86 L 417.136719 95.75 L 333.910156 95.75 Z M 333.910156 86 " clip-rule="nonzero"/></clipPath><clipPath id="983ecfd771"><path d="M 333.910156 73 L 417.136719 73 L 417.136719 83 L 333.910156 83 Z M 333.910156 73 " clip-rule="nonzero"/></clipPath><clipPath id="2e62818aca"><path d="M 333.910156 59 L 417.136719 59 L 417.136719 69 L 333.910156 69 Z M 333.910156 59 " clip-rule="nonzero"/></clipPath><clipPath id="c4735f304d"><path d="M 333.910156 46.472656 L 417.136719 46.472656 L 417.136719 56 L 333.910156 56 Z M 333.910156 46.472656 " clip-rule="nonzero"/></clipPath></defs><g fill="#fafafa" fill-opacity="1"><g transform="translate(275.707607, 96.346747)"><g><path d="M 0.960938 0 L 18.464844 0 C 38.207031 0 48.757812 -10.628906 48.757812 -28.054688 C 48.757812 -43.640625 40.363281 -55.070312 19.824219 -55.070312 L 0.960938 -55.070312 L 0.960938 -54.191406 L 4.957031 -54.191406 C 6.472656 -54.191406 6.792969 -53.714844 6.792969 -51.234375 L 6.792969 -3.835938 C 6.792969 -1.359375 6.472656 -0.878906 4.957031 -0.878906 L 0.960938 -0.878906 Z M 11.511719 -0.878906 C 9.992188 -0.878906 9.671875 -1.359375 9.671875 -3.835938 L 9.671875 -51.234375 C 9.671875 -53.472656 9.910156 -54.03125 11.03125 -54.191406 L 18.382812 -54.191406 C 38.207031 -54.191406 45.878906 -42.84375 45.878906 -27.335938 C 45.878906 -10.472656 36.609375 -0.878906 19.101562 -0.878906 Z M 11.511719 -0.878906 "/></g></g></g><g fill="#fafafa" fill-opacity="1"><g transform="translate(327.834454, 96.346747)"><g/></g></g><g fill="#fafafa" fill-opacity="1"><g transform="translate(347.014359, 96.346747)"><g/></g></g><g fill="#fafafa" fill-opacity="1"><g transform="translate(366.194263, 96.346747)"><g/></g></g><g fill="#fafafa" fill-opacity="1"><g transform="translate(385.374167, 96.346747)"><g/></g></g><g fill="#fafafa" fill-opacity="1"><g transform="translate(404.554073, 96.346747)"><g/></g></g><g fill="#fafafa" fill-opacity="1"><g transform="translate(423.73582, 96.346747)"><g><path d="M 23.660156 0 L 25.976562 0 L 41.5625 -53.394531 L 41.5625 -3.835938 C 41.5625 -1.359375 41.246094 -0.878906 39.726562 -0.878906 L 35.730469 -0.878906 L 35.730469 0 L 50.277344 0 L 50.277344 -0.878906 L 46.28125 -0.878906 C 44.761719 -0.878906 44.441406 -1.359375 44.441406 -3.835938 L 44.441406 -51.234375 C 44.441406 -53.714844 44.761719 -54.191406 46.28125 -54.191406 L 50.277344 -54.191406 L 50.277344 -55.070312 L 40.683594 -55.070312 L 25.65625 -3.757812 L 10.949219 -55.070312 L 0.960938 -55.070312 L 0.960938 -54.191406 L 4.957031 -54.191406 C 6.472656 -54.191406 6.792969 -53.714844 6.792969 -51.234375 L 6.792969 -3.835938 C 6.792969 -1.359375 6.472656 -0.878906 4.957031 -0.878906 L 0.960938 -0.878906 L 0.960938 0 L 14.226562 0 L 14.226562 -0.878906 L 10.230469 -0.878906 C 8.710938 -0.878906 8.394531 -1.359375 8.394531 -3.835938 L 8.394531 -53.394531 Z M 23.660156 0 "/></g></g></g><g clip-path="url(#3f4e5c4e4b)"><path fill="#ffffff" d="M 455.582031 95.75 C 450.914062 95.75 448.574219 93.894531 446.3125 92.09375 C 444.207031 90.421875 442.222656 88.84375 438.199219 88.84375 C 434.175781 88.84375 432.191406 90.421875 430.085938 92.09375 C 427.828125 93.886719 425.484375 95.75 420.8125 95.75 C 416.144531 95.75 413.804688 93.894531 411.546875 92.09375 C 409.441406 90.421875 407.457031 88.84375 403.433594 88.84375 C 399.414062 88.84375 397.425781 90.421875 395.324219 92.09375 C 393.0625 93.886719 390.726562 95.75 386.054688 95.75 C 381.386719 95.75 379.046875 93.894531 376.789062 92.09375 C 374.683594 90.421875 372.699219 88.84375 368.675781 88.84375 C 364.660156 88.84375 362.667969 90.421875 360.570312 92.09375 C 358.3125 93.886719 355.972656 95.75 351.304688 95.75 C 346.632812 95.75 344.292969 93.894531 342.035156 92.09375 C 339.929688 90.421875 337.945312 88.84375 333.929688 88.84375 L 333.929688 86.992188 C 338.601562 86.992188 340.9375 88.847656 343.195312 90.648438 C 345.300781 92.320312 347.285156 93.898438 351.304688 93.898438 C 355.320312 93.898438 357.3125 92.320312 359.410156 90.648438 C 361.667969 88.855469 364.007812 86.992188 368.675781 86.992188 C 373.347656 86.992188 375.683594 88.847656 377.945312 90.648438 C 380.046875 92.320312 382.035156 93.898438 386.054688 93.898438 C 390.078125 93.898438 392.0625 92.320312 394.167969 90.648438 C 396.425781 88.855469 398.765625 86.992188 403.433594 86.992188 C 408.105469 86.992188 410.445312 88.847656 412.703125 90.648438 C 414.808594 92.320312 416.792969 93.898438 420.8125 93.898438 C 424.835938 93.898438 426.820312 92.320312 428.925781 90.648438 C 431.183594 88.855469 433.523438 86.992188 438.191406 86.992188 C 442.863281 86.992188 445.203125 88.847656 447.464844 90.648438 C 449.570312 92.320312 451.554688 93.898438 455.578125 93.898438 C 459.601562 93.898438 461.585938 92.320312 463.691406 90.648438 C 465.953125 88.855469 468.292969 86.992188 472.960938 86.992188 L 472.960938 88.84375 C 468.941406 88.84375 466.957031 90.421875 464.851562 92.09375 C 462.59375 93.894531 460.253906 95.75 455.582031 95.75 Z M 455.582031 95.75 " fill-opacity="1" fill-rule="nonzero"/></g><g clip-path="url(#983ecfd771)"><path fill="#ffffff" d="M 455.582031 82.246094 C 450.914062 82.246094 448.574219 80.386719 446.3125 78.585938 C 444.207031 76.914062 442.222656 75.335938 438.199219 75.335938 C 434.175781 75.335938 432.191406 76.914062 430.085938 78.585938 C 427.828125 80.382812 425.484375 82.246094 420.8125 82.246094 C 416.144531 82.246094 413.804688 80.386719 411.546875 78.585938 C 409.441406 76.914062 407.457031 75.335938 403.433594 75.335938 C 399.414062 75.335938 397.425781 76.914062 395.324219 78.585938 C 393.0625 80.382812 390.726562 82.246094 386.054688 82.246094 C 381.386719 82.246094 379.046875 80.386719 376.789062 78.585938 C 374.683594 76.914062 372.699219 75.335938 368.675781 75.335938 C 364.660156 75.335938 362.667969 76.914062 360.570312 78.585938 C 358.3125 80.382812 355.972656 82.246094 351.304688 82.246094 C 346.632812 82.246094 344.292969 80.386719 342.035156 78.585938 C 339.929688 76.914062 337.945312 75.335938 333.929688 75.335938 L 333.929688 73.484375 C 338.601562 73.484375 340.9375 75.339844 343.195312 77.140625 C 345.300781 78.8125 347.285156 80.394531 351.304688 80.394531 C 355.320312 80.394531 357.3125 78.8125 359.410156 77.140625 C 361.667969 75.347656 364.007812 73.484375 368.675781 73.484375 C 373.347656 73.484375 375.683594 75.339844 377.945312 77.140625 C 380.046875 78.8125 382.035156 80.394531 386.054688 80.394531 C 390.078125 80.394531 392.0625 78.8125 394.167969 77.140625 C 396.425781 75.347656 398.765625 73.484375 403.433594 73.484375 C 408.105469 73.484375 410.445312 75.339844 412.703125 77.140625 C 414.808594 78.8125 416.792969 80.394531 420.8125 80.394531 C 424.835938 80.394531 426.820312 78.8125 428.925781 77.140625 C 431.183594 75.347656 433.523438 73.484375 438.191406 73.484375 C 442.863281 73.484375 445.203125 75.339844 447.464844 77.140625 C 449.570312 78.8125 451.554688 80.394531 455.578125 80.394531 C 459.601562 80.394531 461.585938 78.8125 463.691406 77.140625 C 465.953125 75.347656 468.292969 73.484375 472.960938 73.484375 L 472.960938 75.335938 C 468.941406 75.335938 466.957031 76.914062 464.851562 78.585938 C 462.59375 80.386719 460.253906 82.246094 455.582031 82.246094 Z M 455.582031 82.246094 " fill-opacity="1" fill-rule="nonzero"/></g><g clip-path="url(#2e62818aca)"><path fill="#ffffff" d="M 455.582031 68.738281 C 450.914062 68.738281 448.574219 66.878906 446.3125 65.078125 C 444.207031 63.410156 442.222656 61.828125 438.199219 61.828125 C 434.175781 61.828125 432.191406 63.410156 430.085938 65.078125 C 427.828125 66.875 425.484375 68.738281 420.8125 68.738281 C 416.144531 68.738281 413.804688 66.878906 411.546875 65.078125 C 409.441406 63.410156 407.457031 61.828125 403.433594 61.828125 C 399.414062 61.828125 397.425781 63.410156 395.324219 65.078125 C 393.0625 66.875 390.726562 68.738281 386.054688 68.738281 C 381.386719 68.738281 379.046875 66.878906 376.789062 65.078125 C 374.683594 63.410156 372.699219 61.828125 368.675781 61.828125 C 364.660156 61.828125 362.667969 63.410156 360.570312 65.078125 C 358.3125 66.875 355.972656 68.738281 351.304688 68.738281 C 346.632812 68.738281 344.292969 66.878906 342.035156 65.078125 C 339.929688 63.410156 337.945312 61.828125 333.929688 61.828125 L 333.929688 59.976562 C 338.601562 59.976562 340.9375 61.835938 343.195312 63.636719 C 345.300781 65.304688 347.285156 66.886719 351.304688 66.886719 C 355.320312 66.886719 357.3125 65.304688 359.410156 63.636719 C 361.667969 61.839844 364.007812 59.976562 368.675781 59.976562 C 373.347656 59.976562 375.683594 61.835938 377.945312 63.636719 C 380.046875 65.304688 382.035156 66.886719 386.054688 66.886719 C 390.078125 66.886719 392.0625 65.304688 394.167969 63.636719 C 396.425781 61.839844 398.765625 59.976562 403.433594 59.976562 C 408.105469 59.976562 410.445312 61.835938 412.703125 63.636719 C 414.808594 65.304688 416.792969 66.886719 420.8125 66.886719 C 424.835938 66.886719 426.820312 65.304688 428.925781 63.636719 C 431.183594 61.839844 433.527344 59.976562 438.191406 59.976562 C 442.863281 59.976562 445.203125 61.835938 447.464844 63.636719 C 449.570312 65.304688 451.554688 66.886719 455.578125 66.886719 C 459.601562 66.886719 461.585938 65.304688 463.691406 63.636719 C 465.953125 61.839844 468.292969 59.976562 472.960938 59.976562 L 472.960938 61.828125 C 468.941406 61.828125 466.957031 63.410156 464.851562 65.078125 C 462.59375 66.878906 460.253906 68.738281 455.582031 68.738281 Z M 455.582031 68.738281 " fill-opacity="1" fill-rule="nonzero"/></g><g clip-path="url(#c4735f304d)"><path fill="#ffffff" d="M 455.582031 55.230469 C 450.914062 55.230469 448.574219 53.375 446.3125 51.574219 C 444.207031 49.902344 442.222656 48.324219 438.199219 48.324219 C 434.175781 48.324219 432.191406 49.902344 430.085938 51.574219 C 427.828125 53.367188 425.484375 55.230469 420.8125 55.230469 C 416.144531 55.230469 413.804688 53.375 411.546875 51.574219 C 409.441406 49.902344 407.457031 48.324219 403.433594 48.324219 C 399.414062 48.324219 397.433594 49.902344 395.328125 51.574219 C 393.070312 53.367188 390.730469 55.230469 386.0625 55.230469 C 381.390625 55.230469 379.054688 53.375 376.792969 51.574219 C 374.691406 49.902344 372.703125 48.324219 368.683594 48.324219 C 364.667969 48.324219 362.675781 49.902344 360.574219 51.574219 C 358.316406 53.367188 355.980469 55.230469 351.308594 55.230469 C 346.636719 55.230469 344.300781 53.375 342.042969 51.574219 C 339.9375 49.902344 337.953125 48.324219 333.9375 48.324219 L 333.9375 46.472656 C 338.605469 46.472656 340.945312 48.328125 343.203125 50.128906 C 345.308594 51.800781 347.292969 53.378906 351.308594 53.378906 C 355.324219 53.378906 357.316406 51.800781 359.414062 50.128906 C 361.675781 48.335938 364.011719 46.472656 368.683594 46.472656 C 373.351562 46.472656 375.691406 48.328125 377.949219 50.128906 C 380.054688 51.800781 382.039062 53.378906 386.0625 53.378906 C 390.082031 53.378906 392.070312 51.800781 394.171875 50.128906 C 396.433594 48.335938 398.769531 46.472656 403.441406 46.472656 C 408.109375 46.472656 410.449219 48.328125 412.707031 50.128906 C 414.8125 51.800781 416.796875 53.378906 420.820312 53.378906 C 424.839844 53.378906 426.828125 51.800781 428.933594 50.128906 C 431.191406 48.335938 433.527344 46.472656 438.199219 46.472656 C 442.871094 46.472656 445.207031 48.328125 447.472656 50.128906 C 449.578125 51.800781 451.5625 53.378906 455.582031 53.378906 C 459.605469 53.378906 461.589844 51.800781 463.695312 50.128906 C 465.960938 48.335938 468.296875 46.472656 472.96875 46.472656 L 472.96875 48.324219 C 468.945312 48.324219 466.960938 49.902344 464.855469 51.574219 C 462.59375 53.367188 460.253906 55.230469 455.582031 55.230469 Z M 455.582031 55.230469 " fill-opacity="1" fill-rule="nonzero"/></g><g fill="#4b3230" fill-opacity="1"><g transform="translate(348.444997, 116.718322)"><g><path d="M 4.46875 -9.09375 L 2.734375 -9.09375 L 2.734375 0.453125 L 4.46875 0.453125 L 4.46875 1.734375 L 1.28125 1.734375 L 1.28125 -10.390625 L 4.46875 -10.390625 Z M 4.46875 -9.09375 "/></g></g></g><g fill="#4b3230" fill-opacity="1"><g transform="translate(354.675142, 116.718322)"><g><path d="M 8.28125 -10.390625 L 8.28125 0 L 6.671875 0 L 6.671875 -1.28125 C 6.128906 -0.382812 5.257812 0.0625 4.0625 0.0625 C 3 0.0625 2.132812 -0.285156 1.46875 -0.984375 C 0.8125 -1.691406 0.484375 -2.613281 0.484375 -3.75 C 0.484375 -4.875 0.8125 -5.78125 1.46875 -6.46875 C 2.125 -7.164062 2.976562 -7.515625 4.03125 -7.515625 C 5.226562 -7.515625 6.109375 -7.0625 6.671875 -6.15625 L 6.671875 -10.390625 Z M 2.75 -1.953125 C 3.175781 -1.503906 3.722656 -1.28125 4.390625 -1.28125 C 5.066406 -1.28125 5.613281 -1.503906 6.03125 -1.953125 C 6.457031 -2.398438 6.671875 -2.984375 6.671875 -3.703125 C 6.671875 -4.421875 6.457031 -5.003906 6.03125 -5.453125 C 5.613281 -5.910156 5.066406 -6.140625 4.390625 -6.140625 C 3.722656 -6.140625 3.175781 -5.910156 2.75 -5.453125 C 2.320312 -5.003906 2.101562 -4.421875 2.09375 -3.703125 C 2.101562 -2.984375 2.320312 -2.398438 2.75 -1.953125 Z M 2.75 -1.953125 "/></g></g></g><g fill="#4b3230" fill-opacity="1"><g transform="translate(365.623395, 116.718322)"><g><path d="M 4.25 -7.5 C 5.53125 -7.5 6.457031 -7.113281 7.03125 -6.34375 C 7.601562 -5.570312 7.835938 -4.492188 7.734375 -3.109375 L 2.109375 -3.109375 C 2.242188 -2.523438 2.515625 -2.066406 2.921875 -1.734375 C 3.335938 -1.410156 3.835938 -1.25 4.421875 -1.25 C 5.265625 -1.25 5.96875 -1.535156 6.53125 -2.109375 L 7.375 -1.203125 C 6.613281 -0.359375 5.585938 0.0625 4.296875 0.0625 C 3.148438 0.0625 2.226562 -0.285156 1.53125 -0.984375 C 0.832031 -1.679688 0.484375 -2.585938 0.484375 -3.703125 C 0.484375 -4.828125 0.832031 -5.738281 1.53125 -6.4375 C 2.238281 -7.132812 3.144531 -7.488281 4.25 -7.5 Z M 2.09375 -4.28125 L 6.34375 -4.28125 C 6.3125 -4.882812 6.109375 -5.359375 5.734375 -5.703125 C 5.367188 -6.046875 4.878906 -6.21875 4.265625 -6.21875 C 3.679688 -6.21875 3.191406 -6.046875 2.796875 -5.703125 C 2.410156 -5.359375 2.175781 -4.882812 2.09375 -4.28125 Z M 2.09375 -4.28125 "/></g></g></g><g fill="#4b3230" fill-opacity="1"><g transform="translate(375.255617, 116.718322)"><g><path d="M 0.890625 -5.609375 C 1.054688 -5.785156 1.265625 -5.875 1.515625 -5.875 C 1.773438 -5.875 1.988281 -5.785156 2.15625 -5.609375 C 2.320312 -5.441406 2.40625 -5.226562 2.40625 -4.96875 C 2.40625 -4.695312 2.320312 -4.472656 2.15625 -4.296875 C 1.988281 -4.117188 1.773438 -4.03125 1.515625 -4.03125 C 1.265625 -4.03125 1.054688 -4.117188 0.890625 -4.296875 C 0.722656 -4.472656 0.640625 -4.695312 0.640625 -4.96875 C 0.640625 -5.226562 0.722656 -5.441406 0.890625 -5.609375 Z M 0.890625 -1.453125 C 1.054688 -1.628906 1.265625 -1.71875 1.515625 -1.71875 C 1.773438 -1.71875 1.988281 -1.628906 2.15625 -1.453125 C 2.320312 -1.285156 2.40625 -1.070312 2.40625 -0.8125 C 2.40625 -0.539062 2.320312 -0.316406 2.15625 -0.140625 C 1.988281 0.0351562 1.773438 0.125 1.515625 0.125 C 1.265625 0.125 1.054688 0.0351562 0.890625 -0.140625 C 0.722656 -0.316406 0.640625 -0.539062 0.640625 -0.8125 C 0.640625 -1.070312 0.722656 -1.285156 0.890625 -1.453125 Z M 0.890625 -1.453125 "/></g></g></g><g fill="#4b3230" fill-opacity="1"><g transform="translate(379.62372, 116.718322)"><g><path d="M 10.90625 -7.5 C 11.757812 -7.5 12.425781 -7.242188 12.90625 -6.734375 C 13.394531 -6.222656 13.640625 -5.523438 13.640625 -4.640625 L 13.640625 0 L 12.03125 0 L 12.03125 -4.1875 C 12.03125 -4.757812 11.875 -5.203125 11.5625 -5.515625 C 11.25 -5.835938 10.816406 -6 10.265625 -6 C 9.640625 -5.988281 9.140625 -5.765625 8.765625 -5.328125 C 8.398438 -4.890625 8.21875 -4.34375 8.21875 -3.6875 L 8.21875 0 L 6.609375 0 L 6.609375 -4.1875 C 6.609375 -4.757812 6.453125 -5.203125 6.140625 -5.515625 C 5.828125 -5.835938 5.398438 -6 4.859375 -6 C 4.222656 -5.988281 3.71875 -5.765625 3.34375 -5.328125 C 2.96875 -4.890625 2.78125 -4.34375 2.78125 -3.6875 L 2.78125 0 L 1.1875 0 L 1.1875 -7.453125 L 2.78125 -7.453125 L 2.78125 -6 C 3.28125 -7 4.179688 -7.5 5.484375 -7.5 C 6.148438 -7.5 6.703125 -7.34375 7.140625 -7.03125 C 7.585938 -6.71875 7.898438 -6.28125 8.078125 -5.71875 C 8.535156 -6.90625 9.476562 -7.5 10.90625 -7.5 Z M 10.90625 -7.5 "/></g></g></g><g fill="#4b3230" fill-opacity="1"><g transform="translate(395.6261, 116.718322)"><g><path d="M 5.328125 -10.390625 L 5.328125 1.734375 L 2.15625 1.734375 L 2.15625 0.453125 L 3.890625 0.453125 L 3.890625 -9.09375 L 2.15625 -9.09375 L 2.15625 -10.390625 Z M 5.328125 -10.390625 "/></g></g></g></svg>